<?xml version="1.0" encoding="UTF-8" standalone="no"?>
<svg
   width="286.14999pt"
   height="291.78pt"
   viewBox="0 0 286.15 291.78"
   version="1.1"
   id="svg89"
   sodipodi:docname="unipi (Copy).svg"
   xmlns:inkscape="http://www.inkscape.org/namespaces/inkscape"
   xmlns:sodipodi="http://sodipodi.sourceforge.net/DTD/sodipodi-0.dtd"
   xmlns="http://www.w3.org/2000/svg"
   xmlns:svg="http://www.w3.org/2000/svg">
  <sodipodi:namedview
     id="namedview48"
     pagecolor="#ffffff"
     bordercolor="#000000"
     borderopacity="0.25"
     inkscape:showpageshadow="2"
     inkscape:pageopacity="0.0"
     inkscape:pagecheckerboard="0"
     inkscape:deskcolor="#d1d1d1"
     inkscape:document-units="pt"
     showgrid="false" />
  <defs
     id="defs11">
    <clipPath
       id="clip-0">
      <path
         clip-rule="nonzero"
         d="m 118,265 h 20 v 26.78125 h -20 z m 0,0"
         id="path2" />
    </clipPath>
    <clipPath
       id="clip-1">
      <path
         clip-rule="nonzero"
         d="m 146,264 h 21 v 27.78125 h -21 z m 0,0"
         id="path5" />
    </clipPath>
    <clipPath
       id="clip-2">
      <path
         clip-rule="nonzero"
         d="m 256,126 h 30.14844 v 30 H 256 Z m 0,0"
         id="path8" />
    </clipPath>
  </defs>
  <path
     fill-rule="nonzero"
     fill="#104f8c"
     fill-opacity="1"
     d="m 101.30078,277.17969 4.15625,-12.48828 -7.277342,-0.9375 0.378906,-1.14063 c 2.773436,0.0508 4.839846,-0.13281 7.644536,-0.68359 1.91015,-0.36719 2.19531,-0.44922 3.36328,-0.9336 l 1.13672,0.37891 -5.66797,17.04687 3.83593,2.75782 -0.32812,0.98437 -12.097658,-4.02344 0.328126,-0.98437 4.527342,0.0234"
     id="path13"
     style="opacity:0.2;fill:#ffffff" />
  <g
     clip-path="url(#clip-0)"
     id="g17"
     style="opacity:0.2;fill:#ffffff">
    <path
       fill-rule="nonzero"
       fill="#104f8c"
       fill-opacity="1"
       d="m 118.29297,290.54297 0.6875,-5.87891 1.48047,0.17578 1.03906,4.28907 c 0.85156,0.22265 1.49609,0.38281 2.77344,0.53125 2.50781,0.29296 3.86718,0.0781 5.2539,-0.76172 1.35547,-0.88282 2.27344,-2.32032 2.46485,-3.96485 0.3789,-3.24609 -1.64063,-5.5664 -5.17578,-5.98047 l -1.35547,-0.15625 0.21484,-1.85156 0.49219,0.0586 c 3.90625,0.45703 6.03906,-1.04688 6.4414,-4.5 0.36719,-3.125 -1.25,-4.98047 -4.62109,-5.3711 -0.98437,-0.11719 -2.35156,-0.19531 -3.1914,-0.16797 l -2.41407,4.63672 -1.4414,-0.16797 0.66797,-5.71484 c 3.13281,-0.42578 6.07031,-0.58203 7.8789,-0.37109 5.09766,0.59375 7.95313,3.26171 7.52344,6.96484 -0.39063,3.32812 -3.10156,5.47266 -7.31641,5.89453 4.45313,0.76953 7.04297,3.57422 6.61328,7.23438 -0.53906,4.60156 -4.99609,7.08203 -11.36718,6.33984 -1.76563,-0.20703 -2.78907,-0.36719 -5.9961,-1.11719 l -0.65234,-0.12109"
       id="path15"
       style="fill:#ffffff" />
  </g>
  <g
     clip-path="url(#clip-1)"
     id="g21"
     style="opacity:0.2;fill:#ffffff">
    <path
       fill-rule="nonzero"
       fill="#104f8c"
       fill-opacity="1"
       d="m 149.68359,283.91797 0.67188,-1.11328 2.02344,-3.29297 2.17578,-3.8125 2.53125,-4.39063 0.38281,-0.70703 1.30859,12.35156 z m 10.03125,7.84375 3.5,-0.3711 -0.65234,-6.13281 3.86719,-0.41406 -0.28125,-2.67578 -3.8711,0.41406 -1.87109,-17.61719 -1.64453,0.17188 -12.51563,20.51953 0.13672,1.31641 12.67969,-1.34375 0.65234,6.13281"
       id="path19"
       style="fill:#ffffff" />
  </g>
  <path
     fill-rule="nonzero"
     fill="#104f8c"
     fill-opacity="1"
     d="m 178.98047,288.01953 -1.91797,-5.59766 1.41016,-0.48437 2.79296,3.42187 c 0.86329,-0.16406 1.51563,-0.30078 2.72657,-0.71875 2.39062,-0.8164 3.52343,-1.59765 4.41406,-2.95312 0.83984,-1.38281 1.04687,-3.07031 0.51562,-4.63672 -1.0625,-3.09375 -3.88671,-4.31641 -7.2539,-3.16406 l -1.29297,0.4414 -0.60156,-1.76171 0.46875,-0.16016 c 3.72265,-1.27344 4.99609,-3.54688 3.87109,-6.83594 -1.01953,-2.97656 -3.27734,-3.95312 -6.48828,-2.85547 -0.94141,0.32032 -2.20703,0.84375 -2.94922,1.23047 l -0.17969,5.22266 -1.37109,0.46875 -1.86328,-5.44141 c 2.64453,-1.73828 5.22265,-3.14453 6.94922,-3.73437 4.85156,-1.66407 8.57812,-0.49219 9.78515,3.03515 1.08985,3.17188 -0.42968,6.27344 -4.05468,8.47657 4.35156,-1.22657 7.89843,0.18359 9.08984,3.66796 1.50391,4.38672 -1.44922,8.54688 -7.51953,10.625 -1.6836,0.57813 -2.67578,0.8711 -5.89063,1.57813 l -0.64062,0.17578"
     id="path23"
     style="opacity:0.2;fill:#ffffff" />
  <path
     fill-rule="nonzero"
     fill="#104f8c"
     fill-opacity="1"
     d="m 56.738281,253.87109 c -2.429687,-2.07812 -2.6875,-5.83203 -0.554687,-8.32422 2.132812,-2.49218 5.886718,-2.8125 8.3125,-0.73437 2.460937,2.10547 2.71875,5.85937 0.585937,8.35156 -2.132812,2.49219 -5.882812,2.81641 -8.34375,0.70703"
     id="path25"
     style="opacity:0.2;fill:#ffffff" />
  <path
     fill-rule="nonzero"
     fill="#104f8c"
     fill-opacity="1"
     d="m 49.941406,216.3125 -0.902344,0.56641 -3.167968,-2.23438 -19.722656,12.41797 0.644531,3.82422 -0.898438,0.5664 -5.992187,-9.51953 0.898437,-0.5664 3.191407,2.26953 19.722656,-12.41797 -0.667969,-3.85938 0.902344,-0.5664 5.992187,9.51953"
     id="path27"
     style="opacity:0.2;fill:#ffffff" />
  <path
     fill-rule="nonzero"
     fill="#104f8c"
     fill-opacity="1"
     d="m 41.5625,203.84766 -0.996094,0.38281 -2.671875,-2.8086 -21.757812,8.34766 -0.113281,3.875 -0.992188,0.38281 -2.519531,-6.5625 13.617187,-21.83593 -16.785156,6.4375 -0.109375,3.8789 -0.996094,0.37891 -3.417969,-8.91016 0.996094,-0.3789 2.6875,2.84375 24.542969,-9.41407 0.457031,1.19532 -15.78125,24.99218 19.332032,-7.41797 0.09375,-3.91406 0.996093,-0.38281 3.417969,8.91016"
     id="path29"
     style="opacity:0.2;fill:#ffffff" />
  <path
     fill-rule="nonzero"
     fill="#104f8c"
     fill-opacity="1"
     d="m 27.75,159.85156 -6.261719,0.21485 -0.05078,-1.53516 5.210938,-2.26563 c 0.132812,-1.11328 0.144531,-1.96484 0.105468,-3.15625 -0.136718,-3.96093 -1.78125,-5.99609 -4.761718,-5.89453 -2.085938,0.0742 -3.042969,0.82813 -4.859376,3.83203 l -2.539062,4.26563 c -1.328125,2.30469 -1.984375,3.05078 -3.234375,3.90234 -1.085937,0.71875 -2.183594,1.05469 -3.585937,1.10547 C 3.300781,160.47266 0.167969,157.29687 0,152.39844 c -0.0234375,-0.72266 0.0585938,-2.00391 0.148438,-3.20313 0.09375,-0.9375 0.195312,-1.71094 0.304687,-2.22656 l 0.324219,-1.80078 0.105468,-0.60156 6.046876,-0.20313 0.054687,1.57422 -5.042969,2.17578 -0.027344,0.33984 c -0.050781,1.10938 -0.082031,1.41016 -0.054687,2.17969 0.144531,4.25391 1.53125,6.21094 4.339844,6.11719 1.960937,-0.0664 2.789062,-0.73438 4.5625,-3.73828 l 2.699219,-4.60938 c 1.65625,-2.78515 1.898437,-3.13281 3.0625,-3.98437 1.164062,-0.84766 2.640624,-1.32422 4.257812,-1.37891 4.726562,-0.16015 7.871094,3.26953 8.058594,8.80469 0.04687,1.32031 -0.140625,3.28516 -0.507813,5.13281 l -0.472656,2.40235 -0.109375,0.47265"
     id="path31"
     style="opacity:0.2;fill:#ffffff" />
  <path
     fill-rule="nonzero"
     fill="#104f8c"
     fill-opacity="1"
     d="M 1.113281,133.83203 0.0664062,133.63672 2.136719,122.625 l 1.046875,0.19531 0.804687,3.79297 16.746094,3.14844 c 5.027344,0.94531 7.65625,-0.81641 8.566406,-5.67188 0.960938,-5.10937 -0.789062,-7.77734 -5.648437,-8.6914 l -16.957032,-3.1875 -2.125,3.24219 -1.046874,-0.19922 1.839843,-9.79688 1.046875,0.19531 0.796875,3.83594 16.039063,3.01563 c 4.269531,0.80078 6.453125,2.33984 7.648437,5.42578 0.816407,2.10547 0.917969,4.11719 0.324219,7.25781 -1.328125,7.07812 -4.742188,9.77344 -10.894531,8.61719 l -17.085938,-3.21485 -2.125,3.24219"
     id="path33"
     style="opacity:0.2;fill:#ffffff" />
  <path
     fill-rule="nonzero"
     fill="#104f8c"
     fill-opacity="1"
     d="m 13.152344,90.472656 1.183594,-2.691406 c 0.972656,-2.222656 1.921874,-3.109375 3.617187,-3.578125 1.449219,-0.339844 3.027344,-0.113281 4.625,0.589844 1.640625,0.71875 2.832031,1.707031 3.527344,2.988281 0.925781,1.710938 0.859375,3.449219 -0.304688,6.101562 l -0.785156,1.792969 z m 26.242187,6.675782 -0.972656,-0.425782 -3.148437,3.457034 -8.738282,-3.83594 1.199219,-2.730469 c 2.53125,-5.773437 1.160156,-10.703125 -3.5625,-12.773437 -2.222656,-0.976563 -4.304687,-1.003906 -6.296875,-0.06641 -2.105469,0.984374 -3.507812,2.695312 -5.015625,6.128906 l -4.332031,9.871094 0.976562,0.425781 2.804688,-2.675781 21.339844,9.363286 -0.07031,3.875 0.972656,0.42969 4.84375,-11.042976"
     id="path35"
     style="opacity:0.2;fill:#ffffff" />
  <path
     fill-rule="nonzero"
     fill="#104f8c"
     fill-opacity="1"
     d="m 27.296875,64.347656 1.75,-2.417968 c 1.925781,-2.65625 4.648437,-2.996094 7.476563,-0.945313 2.863281,2.074219 3.578124,5.222656 1.726562,7.777344 l -1.671875,2.308593 z m 11.558594,6.480469 16.445312,0.398437 4,-5.519531 -0.859375,-0.625 -3.195312,1.789063 -14.511719,0.05859 c 1.925781,-3.816407 1.207031,-7.542969 -1.898437,-9.792969 -1.757813,-1.277344 -3.742188,-1.660157 -5.667969,-1.109375 -1.925781,0.550781 -2.976563,1.417968 -4.949219,4.144531 l -6.777344,9.347656 0.863282,0.625 3.304687,-2.023437 18.871094,13.679687 -0.890625,3.773438 0.859375,0.625 6.601562,-9.109375 -0.863281,-0.625 -3.332031,2.058594 -8.898438,-6.453126 0.898438,-1.242187"
     id="path37"
     style="opacity:0.2;fill:#ffffff" />
  <path
     fill-rule="nonzero"
     fill="#104f8c"
     fill-opacity="1"
     d="m 57.421875,49.457031 7.699219,8.714844 7.058594,-6.234375 -1.160157,-5.171875 1.054688,-0.929687 3.863281,5.335937 -15.257812,13.488281 -0.707032,-0.800781 1.695313,-3.488281 -15.433594,-17.460938 -3.667969,1.253906 -0.707031,-0.800781 15.132813,-13.371093 4.230468,4.789062 -1.050781,0.929688 -4.605469,-2.183594 -6.863281,6.0625 7.589844,8.589844 5.777343,-5.105469 -1.453124,-3.832031 0.957031,-0.847657 6.179687,6.992188 -0.957031,0.84375 -3.597656,-1.878907 -5.777344,5.105469"
     id="path39"
     style="opacity:0.2;fill:#ffffff" />
  <path
     fill-rule="nonzero"
     fill="#104f8c"
     fill-opacity="1"
     d="M 91.03125,34.175781 89.355469,11.222656 96.625,7.65625 97.09375,8.613281 94.5,11.546875 l 10.26172,20.925781 3.91016,-0.257812 0.46875,0.957031 -10.097661,4.953125 -0.46875,-0.957031 2.593751,-2.933594 -9.250001,-18.855469 1.785156,25.601563 -0.765625,0.375 -19,-17.160157 9.25,18.859376 3.910156,-0.257813 0.46875,0.957031 -8.570312,4.203125 L 78.53125,47 81.085938,44.085938 70.820312,23.160156 l -3.867187,0.238282 -0.46875,-0.953126 7.535156,-3.699218 17.011719,15.429687"
     id="path41"
     style="opacity:0.2;fill:#ffffff" />
  <path
     fill-rule="nonzero"
     fill="#104f8c"
     fill-opacity="1"
     d="m 119.76172,16.792969 4.10937,-12.808594 1.63282,12.03125 z m 7.32422,10.917969 -2.96094,1.949218 0.14453,1.054688 18.99609,-2.574219 -0.16015,-6.597656 -1.51953,0.203125 -1.95313,4.953125 -8.48828,1.148437 -1.5,-11.105468 6.83594,-0.925782 1.94531,3.566406 1.30859,-0.179687 -1.25,-9.246094 -1.30859,0.179688 -0.92187,3.992187 -6.83985,0.925782 -1.59765,-11.777344 8.27734,-1.121094 2.61328,4.375 1.47656,-0.199219 -0.85547,-6.33593725 -16.71874,2.26562525 -9.96094,27.402343 -2.96094,1.949219 0.14063,1.054688 9.24609,-1.25 -0.14063,-1.054688 -3.3789,-1.132812 3.40234,-10.4375 6.79688,-0.921875 1.33203,9.839844"
     id="path43"
     style="opacity:0.2;fill:#ffffff" />
  <path
     fill-rule="nonzero"
     fill="#104f8c"
     fill-opacity="1"
     d="m 174.91406,6.265625 4.38672,1.253906 c 3.76953,1.074219 5.73828,2.703125 6.87109,5.726563 0.95704,2.535156 0.94532,5.367187 -0.0352,8.808594 -1.14844,4.015624 -2.99219,6.589843 -5.8711,8.292968 -2.60156,1.515625 -4.6875,1.675782 -8.21093,0.667969 l -3.89063,-1.113281 z m -3.01562,26.699219 c 4.09765,1.167968 7.10547,1.1875 10.00781,0.02344 4,-1.605469 6.98437,-5.226562 8.40234,-10.183593 1.10157,-3.851563 0.90235,-7.1875 -0.57031,-10.265626 -1.63281,-3.433593 -4.09375,-5.203124 -9.42187,-6.722656 l -12.20704,-3.488281 -0.29296,1.023437 3.03125,2.417969 -6.39844,22.40625 -3.85156,0.453125 -0.29297,1.023438 11.59375,3.3125"
     id="path45"
     style="opacity:0.2;fill:#ffffff" />
  <path
     fill-rule="nonzero"
     fill="#104f8c"
     fill-opacity="1"
     d="m 189.95312,39.394531 0.4961,-0.941406 3.85937,0.34375 10.84375,-20.625 -2.47265,-2.988281 0.49609,-0.941406 9.95703,5.234374 -0.49609,0.941407 -3.89844,-0.363281 -10.84766,20.625 2.51172,3.007812 -0.49609,0.941406 -9.95313,-5.234375"
     id="path47"
     style="opacity:0.2;fill:#ffffff" />
  <path
     fill-rule="nonzero"
     fill="#104f8c"
     fill-opacity="1"
     d="m 227.78906,54.042969 -5.05078,6.21875 -0.53516,-0.21875 c -3.33203,-1.441407 -5.64843,-2.777344 -7.89843,-4.605469 -3.66797,-2.984375 -5.39453,-5.921875 -5.55469,-9.511719 -0.15234,-3.527343 1.07812,-6.863281 3.68359,-10.070312 3.03516,-3.738281 6.8125,-5.882813 10.84766,-6.117188 3.73437,-0.207031 7.03906,0.996094 10.80859,4.0625 2.2461,1.824219 3.53125,3.144531 5.42578,5.617188 l 0.34766,0.449219 -4.00391,4.925781 -1.2539,-1.023438 1.8164,-5.273437 c -0.625,-0.785156 -1.33203,-1.46875 -2.45703,-2.382813 -3.4375,-2.792969 -6.08593,-3.792969 -9.1914,-3.351562 -3.28907,0.402343 -6.13282,2.207031 -8.79297,5.480469 -4.86328,5.984374 -4.51953,11.917968 0.96484,16.378906 1.19141,0.964844 2.46875,1.894531 3.26953,2.324218 l 4.4336,-5.453124 -1.86328,-3.382813 0.67187,-0.824219 8.73047,7.09375 -0.67188,0.824219 -3.72656,-1.160156"
     id="path49"
     style="opacity:0.2;fill:#ffffff" />
  <path
     fill-rule="nonzero"
     fill="#104f8c"
     fill-opacity="1"
     d="m 226.55469,65.316406 0.85937,-0.625 3.3125,2.019532 18.86328,-13.6875 -0.89843,-3.773438 0.86328,-0.625 4.1289,5.691406 -7.51172,24.609375 14.55079,-10.558593 -0.89454,-3.769532 0.85938,-0.628906 5.60937,7.726562 -0.86328,0.625 -3.33593,-2.054687 -21.27344,15.4375 -0.75391,-1.035156 8.78906,-28.222657 -16.75781,12.160157 0.92188,3.808593 -0.86328,0.625 -5.60547,-7.722656"
     id="path51"
     style="opacity:0.2;fill:#ffffff" />
  <path
     fill-rule="nonzero"
     fill="#104f8c"
     fill-opacity="1"
     d="m 244.21484,91.671875 0.96485,-0.445313 2.85547,2.625 21.16015,-9.761718 -0.14453,-3.875 0.96484,-0.445313 4.71485,10.210938 -0.96875,0.445312 -2.8711,-2.660156 -21.16015,9.761719 0.16406,3.914066 -0.96875,0.44531 -4.71094,-10.214845"
     id="path53"
     style="opacity:0.2;fill:#ffffff" />
  <path
     fill-rule="nonzero"
     fill="#104f8c"
     fill-opacity="1"
     d="m 255.37109,113.10938 23.10938,-6.27344 -1.6875,-6.21094 -5.40625,-0.5625 -0.40235,-1.476562 6.74219,-1.832032 6.1875,22.777344 -6.74219,1.82813 -0.39062,-1.4375 4.37891,-3.21875 -1.63282,-6.00391 -23.10547,6.27734 -0.26562,4.70703 -1.02734,0.28125 -3.39454,-12.5 1.02735,-0.28125 2.60937,3.92579"
     id="path55"
     style="opacity:0.2;fill:#ffffff" />
  <g
     clip-path="url(#clip-2)"
     id="g59"
     style="opacity:0.2;fill:#ffffff">
    <path
       fill-rule="nonzero"
       fill="#104f8c"
       fill-opacity="1"
       d="m 281.3125,139.83594 c -1.34375,0.44922 -2.01563,0.69531 -3.77344,1.3789 l -6.82031,2.67969 -0.375,-7.61719 z m -12.22266,4.77734 -8.66015,3.49609 -1.73047,-3.15625 -1.06641,0.0508 0.53125,10.80859 1.0625,-0.0508 1.41797,-3.3125 25.5,-10.58985 -0.11719,-2.38281 -26.48047,-9.41015 -1.73437,-3.19922 -1.0625,0.0508 0.45312,9.32031 1.06641,-0.0508 1.41797,-3.3125 8.96484,2.80469 0.4375,8.93359"
       id="path57"
       style="fill:#ffffff" />
  </g>
  <path
     fill-rule="nonzero"
     fill="#104f8c"
     fill-opacity="1"
     d="m 258.80078,165.875 23.625,3.88672 1.04297,-6.34766 -4.68359,-2.75781 0.25,-1.51172 6.89453,1.13281 -3.83203,23.28907 -6.89454,-1.13282 0.24219,-1.47265 5.32031,-1.10938 1.00782,-6.13672 -23.625,-3.89062 -2.19532,4.17187 -1.05078,-0.17187 2.10157,-12.78125 1.05078,0.17578 0.74609,4.65625"
     id="path61"
     style="opacity:0.2;fill:#ffffff" />
  <path
     fill-rule="nonzero"
     fill="#104f8c"
     fill-opacity="1"
     d="m 252.9375,181.26953 1.00781,0.34375 0.25781,3.86719 22.05079,7.53125 2.57031,-2.90235 1.00781,0.34375 -3.63672,10.64454 -1.00781,-0.34766 -0.23828,-3.90625 -22.05469,-7.53125 -2.58203,2.94531 -1.00781,-0.34375 3.63281,-10.64453"
     id="path63"
     style="opacity:0.2;fill:#ffffff" />
  <path
     fill-rule="nonzero"
     fill="#104f8c"
     fill-opacity="1"
     d="m 248.38281,197.4375 5.52735,2.94531 -0.72266,1.35156 -5.64453,-0.64062 c -0.67188,0.89453 -1.10938,1.62891 -1.67188,2.67969 -1.86328,3.49609 -1.45703,6.08203 1.17578,7.48437 1.84375,0.98047 3.04688,0.80469 6.125,-0.88672 l 4.33204,-2.42187 c 2.30078,-1.33203 3.24218,-1.64844 4.7539,-1.76172 1.29688,-0.082 2.41406,0.17578 3.65625,0.83984 3.94531,2.10547 5.07422,6.42188 2.76563,10.7461 -0.33985,0.63672 -1.05469,1.70703 -1.72657,2.69922 -0.55468,0.76562 -1.02734,1.38281 -1.38281,1.77343 l -1.17969,1.39844 -0.39453,0.46484 -5.33593,-2.84375 0.74218,-1.39453 5.45313,0.64063 0.19531,-0.28125 c 0.59766,-0.9375 0.77734,-1.17969 1.13672,-1.85547 2.00391,-3.76172 1.78125,-6.14844 -0.69922,-7.47266 -1.73047,-0.92187 -2.78516,-0.75781 -5.82031,0.95313 l -4.64453,2.64062 c -2.82422,1.58594 -3.21094,1.76563 -4.64063,1.91797 -1.43359,0.15235 -2.95312,-0.17187 -4.3789,-0.93359 -4.17579,-2.22656 -5.17969,-6.76953 -2.57422,-11.65625 0.62109,-1.16406 1.76953,-2.77344 3.00781,-4.19141 l 1.61328,-1.84375 0.33203,-0.35156"
     id="path65"
     style="opacity:0.2;fill:#ffffff" />
  <path
     fill-rule="nonzero"
     fill="#104f8c"
     fill-opacity="1"
     d="m 233.53906,250.19141 c -2.33984,2.17578 -6.10156,2.00781 -8.33594,-0.39454 -2.23437,-2.40625 -2.125,-6.16796 0.21485,-8.34375 2.37109,-2.20312 6.13672,-2.03515 8.36719,0.36719 2.23437,2.40235 2.125,6.16797 -0.2461,8.3711"
     id="path67"
     style="opacity:0.2;fill:#ffffff" />
  <path
     fill-rule="nonzero"
     fill="#104f8c"
     fill-opacity="1"
     d="m 135.61719,155.83984 c 0,0.11328 0.0469,0.20703 0.0742,0.3125 -0.0195,0.10938 -0.0352,0.21875 -0.0352,0.32032 0,0.67968 0.40234,1.16406 0.76562,1.60546 l 0.42969,0.5625 c 0.53906,0.82032 1.08594,1.16407 1.96485,1.54688 0.64062,0.27734 1.20703,0.10547 1.66015,-0.0352 0.39844,-0.11718 0.71094,-0.21484 1.0625,-0.082 l 0.50781,0.34375 0.85157,0.52344 c 0.73047,0.22266 1.26562,-0.0703 1.73828,-0.32422 l 0.91797,-0.35547 1.00781,-0.0703 1.34766,-0.11328 0.34375,-0.0508 c 1.07031,-0.15625 2.07421,-0.30469 2.4375,-0.82813 0,-0.004 0.11328,-0.54297 0.11328,-0.54297 l -0.69532,-0.72656 -0.2539,-0.16016 -1.12891,-0.49609 -0.28125,-0.0742 -0.61719,-0.28906 -1.29296,-0.38672 -1.17188,0.33594 -0.78125,0.26172 -1.50391,-0.0859 -0.27734,-0.0508 -0.80078,-0.36719 -1.29688,-0.49219 c -0.78125,-0.0352 -1.27734,0.20313 -1.85156,0.48047 l -0.54687,0.25781 L 137.85937,157 c -0.67968,0.0273 -0.8125,-0.0469 -1.25781,-0.87109 0.10156,-0.19922 0.57813,-1.08594 0.57813,-1.08594 0.082,-0.10938 1.45703,-1.82031 1.71875,-2.14453 0.004,0.004 0.0312,0.0234 0.0312,0.0234 0.004,-0.004 0.008,-0.0234 0.0117,-0.0273 l 0.008,0.004 c 0.0156,-0.0273 0.0234,-0.0781 0.0469,-0.11328 0.0937,-0.1211 0.20703,-0.25 0.20703,-0.41407 0,-0.0977 -0.0352,-0.19531 -0.12109,-0.28906 -0.28125,-0.30078 -0.64844,-0.0469 -0.76953,0.043 -0.38672,0.26953 -2.69531,2.28125 -2.69531,3.71484"
     id="path69"
     style="opacity:0.2;fill:#ffffff" />
  <path
     fill-rule="nonzero"
     fill="#104f8c"
     fill-opacity="1"
     d="m 132.92187,145.42578 0.87891,-0.0937 -0.0977,0.10938 c -0.38671,0.35546 -0.6914,0.63281 -0.57421,1.00781 0.043,0.125 0.16406,0.33594 0.53906,0.38281 0.5625,0.0625 0.86328,-0.30469 1.08594,-0.57422 l 0.25781,-0.28125 0.67187,-0.45703 0.95703,-0.71484 0.98047,-1.37891 c 0.33203,-0.78516 0.32813,-1.33984 0.32032,-2.10547 0,0 -0.36719,-1.82812 -0.36719,-1.82812 l -0.0703,-0.21485 -0.14454,-0.47656 -0.57812,-1.41016 c -0.40234,-0.69921 -1.42188,-2.27734 -2.11328,-1.89062 -0.40235,0.23047 -0.41016,0.60937 -0.41016,0.79297 l -0.004,0.1289 c -0.004,0 -0.3711,0.15235 -0.3711,0.15235 -0.62109,0.15234 -1.16797,-0.16406 -1.86719,-0.5625 -0.57812,-0.33203 -1.23437,-0.71094 -2.03125,-0.83985 -1.5625,-0.24609 -2.51562,-0.23828 -4.07031,0.043 -1.36718,0.24219 -2.21484,0.65235 -3.34375,1.63282 -0.67187,0.57812 -1.20312,1.03515 -1.59375,2.01171 l -0.67187,2.21875 0.0117,-0.0352 c -0.0273,0.32031 0.10547,0.5 0.21875,0.59375 0.10937,0.0859 0.22656,0.11719 0.34765,0.13281 0.15235,0.41406 0.74219,0.83203 2.22657,1.76563 0.73437,0.46093 3.08984,0.88671 4.36718,0.8789 0.0117,0 0.0273,0.008 0.0352,0.008 l 0.33203,0.004 c 0,0 0,-0.0625 0,-0.0703 0.0391,-0.004 0.0781,-0.0117 0.10938,-0.0195 0.0117,0 0.043,0 0.0547,0 0.082,0 0.15625,0.0234 0.23438,0.0234 0.32812,0 0.64453,-0.0508 0.94922,-0.12109 0.84375,-0.0703 1.78906,-0.14844 1.78906,-0.14844 l 1.70312,-0.3789 c 0.70703,-0.20703 1.26953,-0.3711 2.08985,-0.21875 -0.10157,0.35156 -0.23438,0.72656 -0.40625,1.14843 0,-0.004 0,-0.008 0,-0.0156 -0.0391,-0.35156 -0.3711,-0.60547 -0.72266,-0.57031 l -0.83594,0.0898 -1.60937,0.24609 -2.31641,0.5625 c -0.34375,0.082 -0.55469,0.4336 -0.47265,0.77735 0.0859,0.34375 0.43359,0.55469 0.77734,0.47265 l 2.31641,-0.5664 z m -9.1289,-2.98047 c -0.42188,-0.26562 -1.28516,-0.8125 -1.60156,-1.09765 0.0352,-0.25 0.0937,-0.46485 0.15234,-0.6836 0.0391,-0.0781 0.082,-0.14844 0.12109,-0.22656 l 0.75391,-1.19141 c 0.40234,-0.41797 0.71484,-0.74218 1.04688,-1.01562 0.0664,-0.043 0.15625,-0.082 0.22656,-0.1211 -0.28125,0.58204 -0.45313,1.22657 -0.45313,1.91797 0,1.08985 0.40235,2.07422 1.05078,2.83594 -0.53125,-0.10156 -1.01171,-0.23437 -1.29687,-0.41797 z m 5.61328,-2.48047 c -0.29688,0 -0.53906,-0.2539 -0.53906,-0.57031 0,-0.3125 0.24218,-0.56641 0.53906,-0.56641 0.29687,0 0.53516,0.25391 0.53516,0.56641 0,0.31641 -0.23829,0.57031 -0.53516,0.57031 z m 2.91406,2.51563 -0.75,0.16797 c 0.54297,-0.73047 0.87891,-1.62891 0.87891,-2.6211 0,-0.67578 -0.16016,-1.30468 -0.42969,-1.875 0.32813,0.12891 0.63281,0.26172 0.90234,0.40625 0.22657,0.1875 0.45704,0.39453 0.67579,0.64844 0.82031,0.9375 1.19531,1.81641 1.41015,2.875 0,0.082 -0.0195,0.16016 -0.0234,0.24219 -1.07812,-0.17969 -1.92187,-0.0625 -2.66406,0.15625"
     id="path71"
     style="opacity:0.2;fill:#ffffff" />
  <path
     fill-rule="nonzero"
     fill="#104f8c"
     fill-opacity="1"
     d="m 122.41016,130.89062 c 2.03515,-0.45312 3.22265,-0.52343 5.28515,-0.32421 l 1.01953,0.0742 1.76563,0.22266 2.0625,0.71094 1.23437,0.48047 c 0.33203,0.1289 0.69141,-0.043 0.81641,-0.3711 0.12891,-0.33203 -0.0469,-0.71093 -0.37891,-0.83984 l -1.1914,-0.45703 -2.22657,-0.76563 -2.01562,-0.26562 -0.96094,-0.0664 c -2.19531,-0.21484 -3.52343,-0.13281 -5.6914,0.35156 -0.34375,0.0742 -0.5625,0.41797 -0.48438,0.76563 0.0781,0.34766 0.42188,0.5625 0.76563,0.48437"
     id="path73"
     style="opacity:0.2;fill:#ffffff" />
  <path
     fill-rule="nonzero"
     fill="#104f8c"
     fill-opacity="1"
     d="m 147.39453,174.11328 c -0.004,0 -0.008,0.008 -0.0156,0.0117 -0.57422,0.46875 -0.875,0.70312 -1.5,0.88281 l -0.3711,0.10547 c -0.77344,0.23438 -0.98047,0.29297 -2.43359,0.0664 l -1.07031,-0.25 -1.70313,-0.29688 -0.4375,-0.0156 c -0.85937,-0.0391 -1.11719,-0.0508 -1.23828,0.30078 l -0.0937,0.26953 0.23828,0.21875 0.59375,0.53125 c 0.89453,0.83594 1.82031,1.69922 4.01953,1.67969 l 0.82422,-0.0781 0.97266,-0.0234 1.25781,0.54688 1.21875,0.69531 -0.23047,-0.98437 -0.37109,-1.69532 c 0,-0.0273 0,-0.0547 0,-0.082 0,-0.47656 0.29297,-0.78125 0.85156,-1.19531 0.004,-0.008 0.008,-0.0117 0.0156,-0.0117 l -0.52734,-0.67578"
     id="path75"
     style="opacity:0.2;fill:#ffffff" />
  <path
     fill-rule="nonzero"
     fill="#104f8c"
     fill-opacity="1"
     d="m 153.70312,169.17578 -0.17187,-0.33594 c -0.30469,-0.68359 -0.42969,-1.10937 -0.15234,-1.5 l -0.57813,-0.61328 c -0.043,0.0273 -0.0742,0.0898 -0.11328,0.1211 l -0.008,-0.004 c -0.004,0.004 0,0.008 -0.004,0.0117 -0.35937,0.27344 -0.6875,0.70312 -0.6875,1.47656 0,0.23438 0.0391,0.50391 0.10547,0.79688 -0.30859,0.0234 -0.60156,0 -0.97266,-0.10547 l -1.53515,-0.73828 -1.35157,-1.30079 -0.53906,-0.58593 c -0.42969,-0.41407 -0.89062,-0.42578 -1.29687,-0.42969 l -0.42578,-0.0273 c -0.0508,-0.008 -0.70704,0.0195 -1.24219,0.1289 -0.13281,0.0156 -0.26953,0.0273 -0.26953,0.0273 0.0312,0 0.0508,0.0352 0.0859,0.043 -0.0273,0.008 -0.043,0.0156 -0.0625,0.0234 0,-0.008 0.0195,-0.0391 0.0195,-0.0391 l -1.01172,0.27344 c 0,0 -0.28125,-0.0391 -0.28125,-0.0391 l -0.38282,-0.0898 -0.43359,-0.082 -0.94922,-0.082 -1.57812,0.53906 -1.03125,0.85156 -0.47657,0.46875 -0.46484,0.44141 -1.10547,0.76953 c -0.64062,0.20313 -1.02734,0.17578 -1.75781,0.0664 l -0.94922,-0.26172 c 0.27734,-0.6836 0.0898,-1.27735 -0.10547,-1.84375 l -0.13672,-0.40235 -0.83593,0.17579 c 0.043,0.33593 0.0703,0.6289 0.0703,0.88671 0,0.33594 -0.0859,0.60157 -0.2461,0.83985 l -0.23828,0.30469 c -0.5,0.43359 -0.94531,0.65625 -1.38672,0.65625 -0.20703,-0.0352 -0.41796,-0.043 -0.60937,-0.12891 h -0.004 l -0.33593,0.78906 c 0.3164,0.13672 0.63281,0.20313 0.94921,0.20313 0.8086,0.10547 1.55469,-0.0859 2.125,-0.52735 0.39063,0.44532 0.8086,0.77344 1.47266,1.04688 1.04297,0.4375 1.80078,0.375 2.76172,0.29687 l 0.44141,-0.0352 1.44531,-0.20703 1.77344,-0.17969 0.89453,0.23047 1.29687,0.26953 1.1875,-0.39063 c 0.35156,-0.1914 0.56641,-0.29687 0.8711,-0.24609 0,0 0.6875,0.19141 1.10546,0.30859 0.1211,0.0391 0.24219,0.0742 0.24219,0.0742 0.10156,0.0312 0.22656,0.0352 0.35547,0.008 0.30078,0.043 1.66016,0.2461 1.66016,0.2461 1.48828,0.19531 2.7539,-0.0742 3.65625,-0.77735 l 0.22265,-0.2539 c 0.33985,0.32031 0.78907,0.55859 1.3086,0.63672 0.82422,0.125 1.58593,-0.16407 1.98828,-0.7461 l 0.47265,-0.6875 -1.32421,0.0273 c -0.82813,0.0273 -1.23829,-0.0156 -1.45704,-0.37891"
     id="path77"
     style="opacity:0.2;fill:#ffffff" />
  <path
     fill-rule="nonzero"
     fill="#104f8c"
     fill-opacity="1"
     d="m 103.96875,119.65234 c -0.0898,0.008 0.0898,0.008 0,0"
     id="path79"
     style="opacity:0.2;fill:#ffffff" />
  <path
     fill-rule="nonzero"
     fill="#104f8c"
     fill-opacity="1"
     d="m 163.65234,136.32031 c -1.23828,-0.39062 -1.96093,-0.55859 -3.21484,-0.58594 -1.87109,-0.0352 -3.03906,-0.0586 -4.80078,0.59375 -1.11328,0.41407 -1.91797,0.75782 -2.90625,1.73047 l -0.51563,0.48438 c -0.67968,0.62109 -1.32031,1.20312 -1.51953,2.34375 -0.15625,0.89453 -0.15625,1.4414 0.008,2.26172 l 0.19532,0.98437 1.15625,-1.65234 c -0.0312,0.28906 -0.0625,0.57812 -0.0742,0.91015 l -0.0312,0.89454 0.85937,-0.25782 c 1.125,-0.33984 1.57032,-0.19531 2.25391,0.0234 l 1.18359,0.30469 1.58203,0.37109 2.73438,0.44141 c 0,0 0.69922,0.008 0.69922,0.008 1.11719,0.0234 2.08203,0.0391 3.34375,-0.52734 l 2.6914,-1.55469 -0.0352,-0.34766 c 0,-0.0156 -0.004,-0.0273 -0.004,-0.043 l 0.35156,-0.27734 c 0.625,-0.48047 -0.11328,-2.73437 -0.72265,-3.67187 -1.09375,-1.69922 -1.78125,-1.97266 -3.23438,-2.4336 z m -7.19922,6.76953 -1,-0.26172 c -0.57421,-0.1875 -1.20703,-0.30078 -2.07421,-0.1875 0.11718,-0.9414 0.35156,-1.71093 0.92968,-2.6289 0.1211,-0.1875 0.25,-0.32422 0.375,-0.48047 L 155.32812,139 c 0.35157,-0.30078 0.64844,-0.50781 0.95704,-0.68359 -0.38282,0.65234 -0.61329,1.40625 -0.61329,2.22265 0,0.96094 0.31641,1.84375 0.83204,2.5625 z m 4.73047,-2.47656 c -0.29687,0 -0.53906,-0.25391 -0.53906,-0.57031 0,-0.3125 0.24219,-0.56641 0.53906,-0.56641 0.29688,0 0.53516,0.25391 0.53516,0.56641 0,0.3164 -0.23828,0.57031 -0.53516,0.57031 z m 2.89453,2.86328 c -0.5664,0.25391 -1.04687,0.35547 -1.55078,0.39453 0.94141,-0.79297 1.55469,-1.98437 1.55469,-3.33203 0,-0.55078 -0.10937,-1.07031 -0.29297,-1.55469 0.34766,0.23829 0.69531,0.51563 1.08203,0.87891 0.54297,0.50781 0.8125,1.34766 0.98438,1.98047 0.0273,0.18359 0.0586,0.36719 0.0664,0.56641 -0.48437,0.28125 -1.84375,1.0664 -1.84375,1.0664"
     id="path81"
     style="opacity:0.2;fill:#ffffff" />
  <path
     fill-rule="nonzero"
     fill="#104f8c"
     fill-opacity="1"
     d="m 158.98828,145.69922 -1.02344,-0.40235 -2.07812,-0.6289 c -0.004,0 -2.72266,0.082 -2.72266,0.082 l -0.6875,0.0937 c -0.35156,0.0469 -0.60547,0.37109 -0.55859,0.72266 0.0469,0.35156 0.36328,0.59765 0.71484,0.55078 l 0.70703,-0.0937 2.375,-0.082 1.75,0.53906 1.11328,0.43359 c 0.33204,0.12891 0.67579,-0.043 0.80469,-0.375 0.12891,-0.32812 -0.0625,-0.71094 -0.39453,-0.83984"
     id="path83"
     style="opacity:0.2;fill:#ffffff" />
  <path
     fill-rule="nonzero"
     fill="#104f8c"
     fill-opacity="1"
     d="m 210.42969,79.585938 c -0.0781,-0.02344 -0.16407,-0.04297 -0.2461,-0.05078 l -1.1289,-0.148437 c -1.09766,-0.230469 -2.20313,-0.304688 -3.30078,-0.265625 -2.03516,0.07422 -4.04297,0.578125 -5.9336,1.46875 0.0469,-0.171875 0.1211,-0.335938 0.15625,-0.511719 0.4961,-2.398437 -0.0781,-4.941406 -1.59765,-7.515625 -2.76563,-4.707031 -8.72657,-9.53125 -17.3086,-13.894531 1.50781,-1.167969 2.46875,-3.011719 2.46875,-5.054688 0,-0.144531 -0.004,-0.289062 -0.0117,-0.4375 -0.11718,-1.683593 -0.89843,-3.152343 -2.05078,-4.21875 -0.16406,-0.226562 -0.36719,-0.433593 -0.64062,-0.5625 -0.0391,-0.01563 -0.0977,-0.02734 -0.13672,-0.05078 0.008,0.0039 0.0195,0.0039 0.0312,0.0078 0,0 -0.19531,-0.07422 -0.23828,-0.08984 -0.64063,-0.398438 -1.33985,-0.667969 -2.10547,-0.800781 -0.0156,-0.0078 -0.15235,-0.05859 -0.15235,-0.05859 0.0156,0.0039 0.0195,0.01953 0.0352,0.02734 -0.0898,-0.01563 -0.17187,-0.05859 -0.26562,-0.07031 -9.10547,-3.09375 -23.06641,-3.429687 -38.42579,-0.914063 -13.89453,-1.886718 -25.74218,-1.292968 -33.98437,1.589844 -0.0547,0.0078 -0.10547,0.03125 -0.16016,0.03906 0.0156,-0.0039 0.0195,-0.01953 0.0352,-0.02734 0,0 -0.13281,0.05078 -0.15234,0.05859 -0.76563,0.136719 -1.46485,0.40625 -2.10547,0.804687 -0.0391,0.01563 -0.23438,0.08594 -0.23438,0.08594 0.008,-0.0039 0.0195,0 0.0273,-0.0039 -0.0391,0.01953 -0.0937,0.03125 -0.13672,0.05078 -0.26953,0.125 -0.46485,0.332031 -0.63281,0.554687 -1.14844,1.066406 -1.9375,2.539063 -2.05079,4.222656 -0.0117,0.199219 -0.0234,0.394532 -0.0234,0.585938 0,1.679688 0.5039,3.125 1.38672,4.1875 -10.125005,5.367188 -16.691411,11.574219 -17.812505,17.386719 -0.222656,1.171875 -0.242187,2.324219 -0.0078,3.453125 0.04297,0.214844 0.132813,0.410156 0.191407,0.621094 -1.265625,-0.363282 -2.566407,-0.558594 -3.878907,-0.578126 -1.019531,-0.01172 -2.046874,0.07813 -3.066406,0.289063 0.125,-0.02344 -1.007812,0.128906 -1.007812,0.128906 -0.08203,0.0078 -0.164063,0.02344 -0.242188,0.04687 C 68.441406,82 62.109375,88.125 57.277344,96.964844 57.105469,97.144531 56.988281,97.367188 56.925781,97.628906 50.136719,110.42969 46.429688,128.6875 47.4375,148.49609 c 0.820312,16.17578 4.703125,31.2461 11.226562,43.57813 1.320313,2.47656 2.296876,4.26562 3.8125,6.5 -0.02344,-0.0312 6.960938,10.79687 6.960938,10.79687 2.144531,3.17969 6.300781,7.91407 8.738281,9.96094 -0.02734,-0.0273 -0.203125,-0.21094 -0.230469,-0.23828 l 1.625,1.5625 1.011719,0.82812 c 0.06641,0.0547 0.207031,0.16407 0.277344,0.20704 l 2.320313,1.38671 c 2.371093,1.22657 3.910156,1.75782 6.515624,1.59766 0.394532,0 0.785157,-0.0312 1.171876,-0.0898 2.816406,-0.41407 5.445312,-2.30469 6.976562,-5.14844 0.02734,-0.0547 0.160156,-0.32422 0.160156,-0.32422 0.203125,-0.41016 0.363282,-0.73828 0.496094,-1.03125 3.21094,3.00391 6.72266,5.92188 10.49609,8.70703 -0.58984,0.97266 -0.95703,2.09375 -0.95703,3.28906 0,0.90625 0.19141,1.77735 0.53516,2.57813 -0.71875,-0.008 -1.43359,-0.0156 -2.10547,-0.0508 -0.004,0 -0.004,0 -0.004,0 -0.67968,0 -1.32812,0.0859 -1.95703,0.22265 -3.78906,0.80469 -6.585935,3.88282 -6.585935,7.57032 0,2.21875 0.90625,4.16797 2.332035,5.59765 1.02343,1.02735 2.30859,1.79688 3.76172,2.16407 0.11328,0.0664 0.18359,0.1875 0.3164,0.22656 1.23828,0.38281 2.55469,0.67578 3.91016,0.92187 9.60156,1.75391 21.88281,0.0937 34.84765,-4.48828 0.0742,0.0391 0.13282,0.0977 0.21875,0.12891 14.53907,4.99609 27.82032,6.14062 37.46875,3.25781 0.0937,-0.0273 0.20703,-0.043 0.30078,-0.0742 0.0859,-0.0234 0.14454,-0.0781 0.20313,-0.13281 0.27734,-0.10938 0.55469,-0.22266 0.83203,-0.33594 0.28125,-0.10156 0.55859,-0.20703 0.82422,-0.33594 2.66797,-1.28515 4.55078,-3.95703 4.55078,-7.18359 0,-3.42578 -2.42187,-6.3125 -5.76172,-7.35547 -0.85156,-0.26562 -1.74609,-0.4414 -2.6914,-0.4414 -0.6875,0.0352 -1.42579,0.0469 -2.19532,0.0508 0.34375,-0.79688 0.53125,-1.66797 0.53125,-2.57422 0,-0.92578 -0.375,-1.99219 -0.80468,-2.89063 3.69531,-2.74218 7.13281,-5.62109 10.29687,-8.58593 0.0898,0.42187 0.19531,0.83203 0.30078,1.2539 l 0.2461,0.96485 c 0.0312,0.13671 0.0898,0.29687 0.15625,0.42187 1.3125,2.44141 3.5664,4.13281 6.14843,4.74219 0.6211,0.14844 1.25391,0.23828 1.90625,0.2539 2.85157,0.44141 4.4375,-0.22656 6.51563,-1.30078 0.0937,-0.0508 2.41406,-1.4375 2.41406,-1.4375 0.0664,-0.043 0.21094,-0.15625 0.27344,-0.21093 l 1.09375,-0.89063 1.59765,-1.56641 c -0.0312,0.0312 -0.24609,0.27735 -0.28125,0.30469 2.4336,-2.04297 6.58985,-6.77344 8.71875,-9.92578 0.0195,-0.0312 7.00391,-10.85937 7.00391,-10.85937 1.48047,-2.19141 2.90234,-4.55469 4.20313,-6.99219 6.80078,-12.73828 10.6875,-27.86719 11.55468,-44.96485 1.00391,-19.79296 -2.69531,-38.03515 -9.47265,-50.835932 l -0.004,-0.03125 c -0.0352,-0.492188 -0.27344,-0.875 -0.62109,-1.128907 -4.80078,-8.585937 -11.03516,-14.539062 -18.1875,-16.558593 z M 181.60937,63.410156 c 0.71875,0.05078 1.40235,0.265625 2.02735,0.632813 0.082,0.05078 0.17578,0.05859 0.26172,0.09375 8.07812,4.824219 12.83203,9.992187 12.83203,14.191406 0,0.359375 -0.0352,0.714844 -0.10938,1.0625 -0.28125,1.375 -1.16797,2.636719 -2.57031,3.765625 -2.07422,0.8125 -4.09766,1.011719 -6.01953,0.554688 -0.11719,-0.02734 -0.33203,-0.04297 -0.44922,-0.04688 l -1.77344,-0.05078 -3.42968,-0.05469 c -2.85157,0.308594 -9.50782,1.472656 -11.54688,5.460937 0.0195,-0.02734 0.0156,-0.04687 0.0391,-0.07422 -0.0742,0.08984 -0.125,0.191407 -0.17578,0.292969 -0.28906,0.410157 -0.48047,0.804688 -0.60937,1.191407 -1.78907,-1.609376 -4.05078,-2.714844 -6.65625,-2.789063 l -0.78907,-0.02344 -1.47656,0.01562 c -0.55078,-1.128906 -1.07031,-2.726562 -1.01953,-3.464843 0.0937,-1.390625 0.58594,-2.53125 1.39063,-3.210938 0.67578,-0.570312 1.5625,-0.808593 2.63671,-0.703125 0.5586,0.06641 1.58985,0.601563 2.14454,0.890625 l 0.44531,0.226563 c 0.64453,0.328125 1.41406,0.210937 1.9414,-0.285156 0.52735,-0.496094 0.66797,-1.277344 0.37891,-1.941407 -0.39844,-0.910156 -0.76172,-2.050781 -0.75391,-2.398437 0.082,-1.25 0.64063,-2.386719 1.57032,-3.195313 0.87109,-0.757812 1.97265,-1.128906 3.10547,-1.046875 0.72265,0.05078 1.42968,0.289063 2.03515,0.691406 0.67578,0.441407 1.57031,0.351563 2.14453,-0.214843 0.57813,-0.566407 0.67578,-1.460938 0.24219,-2.140625 -0.67969,-1.0625 -1.01172,-1.78125 -0.94141,-2.773438 0.0937,-1.378906 0.70313,-2.621094 1.71875,-3.507812 0.95704,-0.828125 2.16797,-1.234375 3.40625,-1.148438 z m -5.17578,78.707034 c -0.0352,-0.0742 -1.84375,-2.66797 -1.84375,-2.66797 -0.94922,-1.13281 -1.69531,-2.01953 -1.69531,-4.33985 0,-0.53906 0.0742,-1.23437 0.16406,-1.95703 0.58594,0.0469 1.15625,0.0273 1.67188,-0.0117 0.32031,1.52344 1.09765,3.50391 3.25781,4.75391 0.15625,0.57813 0.33203,1.22266 0.33203,1.22266 0.13281,0.47656 0.25781,0.92968 0.375,1.38672 0.0352,0.14062 0.0664,0.28515 0.10547,0.43359 0.0859,0.36328 0.15625,0.73047 0.21875,1.09766 0.0195,0.13671 0.0508,0.26953 0.0664,0.41015 0.0625,0.48438 0.10547,0.98047 0.10156,1.5 0,0.0469 -0.008,0.0977 -0.008,0.14453 -0.0156,0.55078 -0.0625,1.11328 -0.17578,1.72266 -0.27344,1.44922 -0.78907,2.74219 -1.42969,3.61328 -0.21094,0.28906 -0.4336,0.53125 -0.66797,0.71484 -0.29688,0.24219 -0.58203,0.3711 -0.85938,0.40625 -0.64843,0.0781 -1.10546,-0.008 -1.35546,-0.26171 -0.0977,-0.0937 -0.13282,-0.26954 -0.19922,-0.41016 0.44922,-0.12891 0.92578,-0.34766 1.41797,-0.81641 1,-0.94531 1.30859,-2.19531 1.30859,-3.37109 0,-1.71875 -0.66016,-3.29297 -0.78516,-3.57031 z m -4.1875,10.57422 c 0.26172,0.26171 0.59766,0.53125 1.02344,0.75781 -0.63281,4.9375 -1.84766,10.94922 -5.05859,16.27344 -0.42188,0.69921 -0.81641,1.30859 -1.20703,1.87109 -0.14063,0.14062 -0.25,0.30078 -0.32813,0.47656 -1.35547,1.89063 -2.66406,3.19922 -4.64453,4.96875 -1.71094,1.52735 -2.75,2.3086 -4.83203,3.63672 l -2.66016,1.78516 c -3.23437,2.21875 -5.48047,3.72656 -9.32422,3.84765 l 1.19141,-0.21093 1.61719,-0.33985 c 0.34765,-0.0703 0.64843,-0.42187 0.57812,-0.76953 -0.0703,-0.34766 -0.33203,-0.58203 -0.67969,-0.51172 l -1.86718,0.38672 -1.33985,0.25391 -1.12109,-0.2461 -2.17188,-0.39453 c -0.34375,-0.0625 -0.5625,0.17969 -0.6289,0.52735 -0.0625,0.34765 0.28515,0.6914 0.6289,0.75781 l 1.80079,0.33984 1.07421,0.22266 c -0.043,0 -0.082,0.004 -0.12109,0 -2.04687,-0.0625 -3.5625,-0.3711 -4.90625,-0.84766 -0.0117,0 -0.0195,-0.008 -0.0312,-0.0117 -1.33203,-0.47656 -2.50781,-1.12109 -3.86328,-1.86718 l -3.66406,-1.89063 -2.47266,-1.05859 c -2.08203,-0.84766 -3.46094,-1.41016 -6.30469,-3.8125 -2.91796,-2.46485 -4.0664,-4.59766 -5.83984,-8.14844 -3.12891,-6.26953 -4.01562,-10.41797 -3.53516,-16.60547 0.0977,-0.082 0.1875,-0.16406 0.26563,-0.24609 1.8125,-1.83203 1.47656,-4.77344 1.43359,-5.10547 -0.0781,-0.58985 -0.58203,-0.9961 -1.1289,-1.23828 -0.49219,-0.21875 -1.125,-0.0664 -1.60938,0.20703 -0.16797,-0.16406 -0.23828,-0.47266 -0.23828,-0.84766 0,-0.68359 0.22266,-1.57812 0.49219,-2.20312 0.004,0.0195 1.33203,-1.85157 1.33203,-1.85157 1.46094,-1.73437 3.11719,-3.70312 2.25391,-9.52734 0,0 -0.1875,-0.52344 -0.36719,-1.01562 0.75,-1.89063 0.41015,-4.16016 0.36328,-4.44532 -0.0898,-0.54296 -0.44141,-1.0039 -0.92969,-1.25 -0.49219,-0.24218 -1.07812,-0.23437 -1.5664,0.0195 -0.1211,0.0625 -0.25782,0.082 -0.39844,0.12109 v -0.004 c 0.14453,-0.0547 0.29687,-0.11718 0.29687,-0.11718 0.65235,-0.23047 1.67969,-0.60547 2.51953,-1.59766 l 0.0937,0.0586 c 1.75,0.90235 4.50391,0.90625 6.38282,-0.83984 2.95312,-2.75 2.42187,-5.92188 1.72656,-7.21094 -0.11719,-0.21484 -0.28125,-0.39453 -0.47266,-0.53515 0.1836,0.0195 0.36719,0.0469 0.54297,0.0547 1.41797,0.0781 3.90625,-0.082 6.21484,-1.59375 1.28125,1.07422 2.84766,1.73828 4.24219,1.73828 2.94922,0 5.39063,-1.41796 6.8086,-3.88671 0.38281,-0.22266 0.74609,-0.46875 1.08593,-0.75 1.31641,2.99218 4,4.92187 7.33203,4.92187 1.88282,0 4.30469,-1.03125 5.70704,-2.76172 1.5,1.63281 3.26953,2.41797 4.83984,2.77735 -0.0469,0.0625 -0.11719,0.10546 -0.15234,0.17578 -0.69532,1.29297 -1.23047,4.46484 1.72656,7.21093 1.875,1.7461 4.6289,1.74219 6.3789,0.84375 l 0.0937,-0.0625 c 0.83594,0.99219 1.86719,1.3711 2.51954,1.60157 0,0 0.15625,0.0586 0.29687,0.11718 -0.14062,-0.0352 -0.27734,-0.0547 -0.39844,-0.11718 -0.48828,-0.25782 -1.07031,-0.26172 -1.5625,-0.0195 -0.49218,0.24609 -0.83984,0.70312 -0.93359,1.24609 -0.10938,0.65234 -0.50781,3.78906 1.13281,5.70312 l -0.16797,0.47266 c -0.16406,1.11328 -0.23828,2.08594 -0.23828,2.94141 0,3.625 1.3086,5.18359 2.49219,6.58593 l 1.37109,1.9336 c 0.2461,0.5664 0.45703,1.4375 0.45703,2.10937 0,0.38281 -0.0742,0.69531 -0.23828,0.85938 -0.48437,-0.27344 -1.12109,-0.42188 -1.61328,-0.20703 -0.54687,0.24218 -1.04687,0.64843 -1.125,1.24218 -0.0469,0.32813 -0.38281,3.26953 1.42578,5.10157 z m -11.44922,53.42578 c -1.32031,1.29687 -2.57031,2.51953 -4.07421,3.44922 -8.40235,5.16796 -19.08985,10.63281 -35.3086,13.16796 -0.7539,-0.22265 -1.28125,-0.94921 -1.28125,-1.78515 0,-0.85547 0.56641,-1.61719 1.34766,-1.8125 0.0117,-0.004 0.0391,-0.0117 0.0742,-0.0234 0.125,-0.0195 0.24219,-0.0586 0.36328,-0.10937 0.37109,-0.11329 0.83984,-0.25391 0.83984,-0.25391 8.46875,-2.95703 20.0625,-7.43359 27.57031,-12.09375 2.38672,-1.48047 4.51954,-3.33203 6.57813,-5.12109 l 0.32422,-0.27344 c 0.58984,2.05859 2.09375,3.69531 4.04297,4.42969 z m 2.39844,2.44922 1.37891,-1.23829 c 0.40625,2.42969 2.01562,4.41797 4.17969,5.34766 l -4.66016,3.01953 -1.5625,0.96485 c -15.91406,9.8789 -35.73047,15.12109 -49.79297,15.89843 -0.79297,-0.55859 -1.27344,-1.47265 -1.27344,-2.48047 0,-0.77343 0.35547,-1.51171 0.90235,-2.07031 0.16797,-0.0977 0.3125,-0.23047 0.44531,-0.38281 0.51172,-0.36719 1.125,-0.59766 1.76172,-0.59766 21.10547,-1.97265 34.04687,-8.46093 43.94922,-14.54297 1.83203,-1.13671 3.27343,-2.55078 4.67187,-3.91796 z m -36.30859,3.65625 c 0,0.004 0.64453,0.3789 1.4414,0.85156 -2.11328,0.80469 -4.30859,1.60937 -6.6289,2.41797 0,0 -0.0703,0.0195 -0.17188,0.0547 -1.59765,-1.02343 -3.17187,-2.07812 -4.71484,-3.16406 2.09375,-0.95312 3.62891,-2.92969 4.02734,-5.30859 l 1.37891,1.23437 c 1.39453,1.36719 2.83984,2.78125 4.66797,3.91407 z m -2.75,-6.78516 c 1.95312,-0.73047 3.45312,-2.375 4.04297,-4.42969 l 0.32422,0.26953 c 2.05859,1.78907 4.1914,3.64063 6.58203,5.125 1.39453,0.86719 2.64843,1.59375 3.91797,2.27344 -2.03907,0.92578 -4.2461,1.86328 -6.61329,2.81641 l -3.70703,-2.1836 c -1.49609,-0.92968 -2.74609,-2.15234 -4.07031,-3.44922 z m 24.38281,-1.69141 c -1.59375,0.99219 -3.49219,2.02344 -5.61719,3.08594 -2.08203,-1.01953 -3.86328,-2.00781 -6.01172,-3.33984 -1.04296,-0.64844 -2.05468,-1.39844 -3.04687,-2.19141 0.0547,-0.004 0.11328,-0.004 0.16406,-0.0117 -0.0234,0 -0.043,0.0117 -0.0625,0.0117 0.12891,0 0.26172,-0.0195 0.39063,-0.0508 4.58984,-0.21484 8.26562,-4.07422 8.26562,-8.83594 0,-0.83984 -0.29687,-1.86328 -0.67187,-2.83594 0.66406,0.082 1.35937,0.14454 2.13281,0.17188 0.78125,0.0234 1.50391,-0.004 2.19531,-0.0625 -0.28125,0.83984 -0.48828,1.71875 -0.48828,2.50391 0,4.19921 2.86719,7.71093 6.69141,8.6289 -1.27344,1.0625 -2.57813,2.08203 -3.94141,2.92578 z m -38.35547,-55.54297 c 0.49219,0.46485 0.97266,0.6836 1.41797,0.8125 -0.0625,0.14454 -0.0977,0.32032 -0.19531,0.41407 -0.25,0.2539 -0.70703,0.33984 -1.35547,0.25781 -0.33984,-0.0391 -0.68359,-0.23047 -1.05469,-0.58203 -0.85547,-0.81641 -1.57031,-2.3711 -1.90625,-4.14844 -0.1289,-0.69141 -0.18359,-1.33594 -0.18359,-1.94922 0,-1.66797 0.41016,-3.12109 0.87109,-4.73828 l 0.33203,-1.21484 c 1.38672,-1.21094 1.96485,-2.71094 2.2461,-3.9375 0.008,-0.0391 0.0234,-0.082 0.0312,-0.11719 0.0781,0.008 0.15625,0.008 0.23437,0.0156 0.10157,0.008 0.19922,0.0117 0.30469,0.0195 0.125,0.008 0.24609,0.008 0.37109,0.008 0.0742,0.004 0.14454,0.004 0.21875,0.004 0.125,0 0.25,-0.008 0.375,-0.0156 0.0937,-0.004 0.19141,-0.0117 0.28516,-0.0234 0.10156,-0.008 0.20313,-0.0195 0.30859,-0.0352 0.17188,-0.0234 0.34375,-0.0625 0.51563,-0.10157 0.0273,-0.008 0.0547,-0.008 0.0859,-0.0156 0.043,0.47265 0.11718,1.01172 0.11718,1.40625 0,2.30859 -0.74609,3.19922 -1.69921,4.33203 l -1.8086,2.58984 c -0.14453,0.32422 -0.8164,1.92188 -0.8164,3.65625 0,1.17578 0.30859,2.41797 1.30468,3.36328 z m 8.63282,-72.324214 c -0.14454,-2.175781 -1.1211,-4.152344 -2.74219,-5.558594 -1.55078,-1.347656 -3.51953,-2.015624 -5.54688,-1.886718 0.0352,-0.265625 0.14844,-0.472656 0.14844,-0.765625 0,-0.15625 -0.004,-0.316407 -0.0156,-0.480469 -0.15625,-2.292969 -1.1836,-4.375 -2.89454,-5.859375 -0.23437,-0.207031 -0.49609,-0.359375 -0.75,-0.535156 -0.27734,-0.195313 -0.55468,-0.378907 -0.85156,-0.53125 0.22656,-0.113281 0.41406,-0.273438 0.57031,-0.472657 1.60157,-0.75 3.28125,-1.484374 5.05469,-2.199218 -0.0273,0.0078 -0.0469,0.02734 -0.0742,0.03516 l 1.22657,-0.265625 c 0.6875,-0.05078 1.35546,0.07422 1.98046,0.328125 0.46485,0.1875 0.90625,0.433594 1.29688,0.777344 0.98047,0.847656 1.57031,2.046875 1.66016,3.375 0.0781,1.179687 -0.25782,2.34375 -0.94532,3.277344 -0.41797,0.570312 -0.35937,1.320312 0.0234,1.917968 0.38281,0.597656 1.17578,0.875 1.87109,0.730469 l 1.7461,-0.355469 c 0.625,-0.03906 1.29687,0.171875 1.83594,0.640625 0.66796,0.578125 1.07421,1.511719 1.15234,2.625 0.0273,0.410157 -0.35156,1.007813 -0.71875,1.582031 l -0.30469,0.488282 c -0.3789,0.605468 -0.22656,1.328125 0.20703,1.894531 0.4336,0.570313 1.28516,0.753906 1.96875,0.546875 l 1.33203,-0.402344 c 0.73438,-0.05078 1.45704,0.191406 2.02344,0.6875 0.61328,0.53125 0.98438,1.285156 1.03906,2.117188 0.043,0.664062 -0.12109,1.300781 -0.45703,1.847656 -0.59375,0.34375 -1.17968,0.695312 -1.71093,1.046875 -0.35938,-0.875 -0.90235,-1.683594 -1.6211,-2.359375 -1.54687,-1.453125 -3.76953,-2.15625 -6.10547,-1.925781 -0.14453,0.01953 -0.28906,0.09375 -0.4375,0.121093 0.008,-0.07422 0.0469,-0.164062 0.0469,-0.238281 0,-0.06641 0,-0.136719 -0.008,-0.203125 z M 133.4375,62.1875 c 6.15625,-1.511719 11.69141,-2.5 16.48437,-2.933594 7.85938,-0.710937 15.48047,-0.6875 22.24219,0.05859 0.0781,0.03906 0.13672,0.101562 0.22266,0.128906 0.86719,0.3125 1.47265,1.132813 1.53515,2.097656 0.0898,1.320313 -0.85156,2.46875 -2.10156,2.554688 0,0 -0.4375,-0.0078 -0.4375,-0.0078 -0.043,-0.0078 -3.59375,-0.378907 -3.59375,-0.378907 -5.46484,-0.144531 -10.49219,0.08594 -15.07031,0.664063 -5.85938,0.742187 -11.61719,1.894531 -16.90625,3.339844 0.004,-0.113282 0.0195,-0.226563 0.0195,-0.335938 0,-2.183594 -0.91016,-4.007812 -2.39453,-5.1875 z m 36.24609,5.164062 c 0.69532,0.07031 1.29688,0.136719 1.29688,0.136719 -0.043,-0.0078 1.08594,0.02734 1.08594,0.02734 0.375,-0.02734 0.73437,-0.09375 1.08203,-0.191406 -0.0195,0.171875 -0.0742,0.335937 -0.0859,0.511719 -0.008,0.160156 -0.0156,0.320312 -0.0156,0.476562 0,0.292969 0.11329,0.5 0.14844,0.769531 -1.13672,-0.07422 -2.24609,0.128907 -3.28125,0.535157 0.0352,-0.308594 0.043,-0.628907 0.0195,-0.960938 -0.0312,-0.460938 -0.12109,-0.894531 -0.25,-1.304688 z m -4.73828,9.613282 c -0.13672,-0.03125 -0.26953,-0.101563 -0.40625,-0.117188 -2.03125,-0.199218 -3.82422,0.316406 -5.21875,1.492188 -0.95703,0.8125 -1.64453,1.925781 -2.08594,3.203125 -0.625,-0.421875 -1.30078,-0.835938 -2.01171,-1.25 -0.4375,-0.589844 -0.65625,-1.304688 -0.60547,-2.054688 0.0547,-0.835937 0.42187,-1.589843 1.03515,-2.121093 0.57032,-0.496094 1.29297,-0.738282 2.02735,-0.683594 l 1.32812,0.402344 c 0.6836,0.203124 1.53516,0.01562 1.97266,-0.550782 0.26172,-0.34375 0.40234,-0.75 0.39844,-1.148437 0.91406,-0.04687 1.82812,-0.09375 2.73828,-0.105469 0.0859,0 1.28906,-0.07813 1.28906,-0.07813 0.0469,0 0.0937,-0.01172 0.14062,-0.01563 -0.33984,0.8125 -0.57812,1.675781 -0.64062,2.585938 -0.004,0.07031 -0.004,0.136718 -0.004,0.210937 0,0.06641 0.0391,0.15625 0.043,0.230469 z m 1.35547,41.613286 c 1.33594,-0.75391 1.86328,-2.08204 1.86328,-3.36719 0,-0.41406 -0.082,-0.8086 -0.1875,-1.19141 0.61328,-0.32422 1.16016,-0.70703 1.65625,-1.1289 0.13672,0.375 0.25781,0.8125 0.34375,1.30859 0.008,0.0508 0.0117,0.10937 0.0195,0.16016 0.0312,0.21093 0.0625,0.42187 0.0781,0.65625 0.0234,0.28906 0.0391,0.59765 0.0391,0.92578 l -0.19922,1.39843 c 0,-0.008 -0.008,0.0234 -0.008,0.0391 -0.24609,0.77343 -0.71484,1.40625 -1.48438,1.98437 l -1.25781,0.77344 c -0.48437,0.25 -1.70312,0.41406 -2.47656,-0.30469 -0.39063,-0.36328 -0.59766,-0.70312 -0.78125,-1.03125 0.77734,0.19141 1.60547,0.22266 2.39453,-0.22265 z m -2.27344,-3.38672 c 0.14453,-0.0312 0.39453,-0.0859 0.6836,-0.14453 0.008,0.0703 0.0195,0.14062 0.0195,0.21484 0,0.0937 -0.0391,0.14844 -0.0742,0.21094 -0.16016,-0.0391 -0.38672,-0.14063 -0.62891,-0.28125 z m 3.78516,-16.332035 -0.16406,-0.0625 c -0.5,-0.175781 -1.05078,-0.53125 -1.5,-0.242187 -0.44532,0.285156 -0.73438,0.347656 -0.78516,0.875 l -0.15625,1.753902 c 0.0742,0.41016 0.11328,0.72657 0.11328,0.97657 0,0.66015 -0.28515,0.84765 -0.92187,1.01172 -0.6836,-0.62891 -1.09375,-4.125005 -1.28907,-5.835942 l -0.22265,-1.832032 c -0.043,-0.335937 -0.1211,-0.683594 -0.21094,-1.039062 -0.004,-0.01563 -0.0117,-0.03516 -0.0156,-0.05859 -0.28125,-1.074219 -0.76563,-2.222656 -1.41016,-3.355469 0.54687,-0.0039 1.27344,-0.0078 1.27344,-0.0078 l 0.8125,0.02344 c 3.38281,0.09766 6.19922,3.128906 7.19531,6.167969 l 0.28516,1.167969 c 0.004,0.01563 0.0195,0.03125 0.0234,0.05078 l 0.10547,0.726563 c 0,0 0.0391,1.410154 0.0508,1.859374 -0.76172,-0.96484 -1.8125,-1.703124 -3.18359,-2.179687 z m -5.33203,7.191405 c 0.78515,0.54297 1.72265,0.70703 2.70703,0.46094 1.35547,-0.33594 2.76953,-1.17578 3.28906,-2.99219 0.30469,0.53125 0.55078,1.20703 0.55078,2.28516 0,0.66797 -0.082,1.46094 -0.27343,2.41015 l -0.375,0.9375 c 0,0 -0.004,0.0117 -0.008,0.0234 -0.73047,1.30078 -2.16015,1.96094 -2.94922,2.23828 l -1.71875,0.38672 c -2.32031,0.125 -5.39843,-0.60156 -6.86718,-4.77734 0.004,0.0156 0.0547,0.21484 0.0625,0.23828 -0.0117,-0.0352 -0.14453,-0.45313 -0.26563,-0.82422 l -0.0625,-0.19922 c -0.004,-0.0234 -0.004,-0.0469 -0.008,-0.0664 l -0.47266,-2.5625 c -0.0508,-0.47657 -0.11328,-0.9375 -0.1914,-1.3711 -0.55078,-3.171874 -1.77735,-5.242186 -3.88672,-6.624999 0.0195,0.01953 -0.78125,-0.425781 -1.19922,-0.660156 -0.0352,-0.01953 -0.0547,-0.05078 -0.0898,-0.06641 l -0.48438,-0.238281 c -1.38281,-0.667969 -2.14453,-1.035157 -2.48437,-2.53125 -0.0664,-0.289063 -0.11719,-0.570313 -0.15235,-0.84375 -0.0117,-0.109376 -0.0117,-0.207032 -0.0234,-0.3125 -0.0117,-0.164063 -0.0273,-0.324219 -0.0312,-0.480469 0,-0.04687 0.008,-0.08984 0.008,-0.140625 0.008,-0.371094 0.0547,-0.710938 0.1289,-1.015625 0.1211,-0.203125 0.5586,-0.957031 0.69532,-1.183594 0.10156,-0.07422 0.21484,-0.15625 0.21484,-0.15625 3.48047,-1.984375 6.56641,0.71875 8.09766,2.503906 1.69531,1.980469 2.625,4.171875 2.80078,5.46875 l 0.21093,1.769531 c 0.41407,3.578132 0.80079,6.953132 2.77735,8.324222 z m -44.80469,11.21875 c 0.28906,0.4375 0.60547,0.86719 1.13281,1.16406 0.78516,0.44532 1.61329,0.41407 2.39063,0.22266 -0.18359,0.32813 -0.38672,0.66797 -0.77734,1.03125 -0.77735,0.71875 -1.9961,0.55469 -2.48047,0.30469 0,0 -0.16797,-0.10547 -0.3711,-0.22656 0.082,-0.57032 0.12891,-1.17969 0.12891,-1.86719 0,-0.19922 -0.0195,-0.42188 -0.0234,-0.62891 z m 2.77344,-1.9414 c -0.0312,-0.0625 -0.0742,-0.11329 -0.0742,-0.21094 0,-0.23047 0.0664,-0.49219 0.0703,-0.4961 0.12891,-0.40234 0.20703,-0.78125 0.28907,-1.16406 0.59375,0.29297 1.19921,0.52344 1.79687,0.69141 -0.25391,0.0703 -0.49609,0.1875 -0.69922,0.36719 -0.4414,0.39062 -1.05078,0.73046 -1.38281,0.8125 z m -0.0781,-6.3711 c -0.35156,-0.44531 -0.57421,-0.92578 -0.68359,-1.45312 -0.19141,-0.94922 -0.27344,-1.74219 -0.27344,-2.41407 0,-1.07421 0.24219,-1.75 0.55078,-2.28125 0.51954,1.8125 1.92969,2.65625 3.28516,2.98829 0.98828,0.24609 1.92188,0.0898 2.71094,-0.46094 1.97656,-1.3711 2.36328,-4.7461 2.77343,-8.320315 l 0.10938,-0.953125 c 0.0195,-0.15625 0.10547,-0.820312 0.10547,-0.820312 0.13672,-0.996094 0.66406,-2.316407 1.45703,-3.613282 0.44922,-0.742187 4.54297,-7.148437 9.44141,-4.359375 0.82421,0.46875 1.16015,1.492188 1.01171,3.03125 l -0.17187,1.105469 c 0,-0.0078 0,-0.01172 0,-0.01172 0,0 0,0.0078 0,0.01563 -0.22266,0.957032 -0.61719,1.375 -0.97266,1.65625 -0.0742,0.07031 -1.49609,0.863282 -1.49609,0.863282 -2.09766,1.027343 -4.97266,2.433593 -5.77734,8.355468 0,0 0,0.004 0,0.004 l -0.0703,0.46875 c -0.0117,0.0781 -0.0234,0.14063 -0.0234,0.14063 -0.11719,1.14062 -0.33204,2.17578 -0.65235,3.15234 -0.46094,1.41016 -1.11719,2.53125 -1.95703,3.33985 -1.60156,1.53906 -3.60547,1.77343 -5.0039,1.69921 -1.07813,-0.0625 -3.22266,-0.6914 -4.36329,-2.13281 z M 139.043,99.09375 c -0.0703,0.351562 -0.14063,0.699219 -0.22266,1.03125 -0.59375,-0.226562 -1.28906,-0.378906 -2.09375,-0.433594 0.53516,-1.070312 1.22656,-1.714844 2.05078,-2.175781 z m -5.46485,10.94531 c 0.50391,0.45313 1.07032,0.83203 1.6875,1.125 -0.0859,0.0234 -0.16015,0.0625 -0.25781,0.0625 -0.45312,0 -1.08594,-0.32422 -1.71094,-0.77734 0.0937,-0.13281 0.19141,-0.26953 0.28125,-0.41016 z m 1.56641,-3.64453 c 0.26563,-0.94531 0.46875,-1.92969 0.58984,-2.98047 0.17969,-0.15625 0.36329,-0.33984 0.51954,-0.33984 1.25781,0 1.79296,0.37891 1.89062,0.52344 l -0.0586,-0.13672 c 0.22656,0.52344 0.72656,0.97656 1.29297,1.07812 0.5625,0.10547 1.16796,-0.004 1.5664,-0.41015 0.19531,-0.20313 0.38281,-0.5586 0.55078,-0.98438 0.21094,0.17969 0.42969,0.34375 0.66016,0.5 -0.0195,0.33594 -0.0391,0.65235 -0.0547,0.9336 l -0.0117,0.18359 c -0.0195,0.28516 -0.0352,0.53516 -0.0469,0.72656 -0.46875,1.16406 -1.21485,2.03516 -2.20313,2.48438 -0.57422,0.26172 -1.21875,0.39453 -1.92187,0.39453 -1.14844,0 -2.35938,-0.92188 -2.77344,-1.97266 z m 6.97656,-9.351561 0.0312,-0.253907 c 0.0547,-0.410156 0.16016,-1.21875 0.19532,-1.511718 0.4375,-0.4375 0.79687,-0.933594 1.08203,-1.492188 0.0117,0.203125 0.0234,0.414063 0.0391,0.644532 0.008,0.07031 0.0117,0.140624 0.0195,0.210937 0.0156,0.210937 0.0391,0.421875 0.0625,0.644531 0.008,0.07422 0.0156,0.144532 0.0234,0.21875 0.0742,0.574219 0.17578,1.15625 0.3164,1.699219 0.0195,0.07422 0.043,0.144531 0.0625,0.214844 0.0586,0.199219 0.1211,0.386719 0.19141,0.5625 0.0273,0.07031 0.0508,0.140625 0.082,0.207031 0.0977,0.226562 0.20703,0.433594 0.33203,0.605469 0.35157,0.488281 0.92969,0.75 1.52735,0.699219 0.59375,-0.04688 1.12109,-0.402344 1.39062,-0.933594 0.33594,-0.667969 0.48438,-0.832032 0.53516,-0.875 0.0898,-0.0078 0.40234,0.0078 1.20703,0.28125 0.17969,0.08203 0.69141,0.355468 0.69141,0.355468 0.0937,0.07422 0.23046,0.199219 0.33203,0.445313 0.0117,0.02344 0.0195,0.05469 0.0312,0.08203 0.0312,0.09766 0.0547,0.226563 0.0742,0.363282 0.008,0.0625 0.0156,0.125 0.0195,0.203124 0.008,0.203126 0.004,0.429688 -0.0312,0.722659 -0.0625,0.45703 -0.24219,1.83984 -2.67188,1.76953 -1.07422,-0.0312 -2.10547,-0.28125 -2.98047,-0.71484 -1.14453,-0.5625 -1.90625,-1.417973 -2.28125,-2.542973 z m 3.375,8.023441 c 0.22657,0.0508 0.45703,0.0937 0.69141,0.1289 0.15625,0.5586 0.39844,1.17188 0.78125,1.72266 0.0195,0.0352 0.0469,0.0625 0.0703,0.0937 0.16016,0.21875 0.35156,0.41797 0.5625,0.60156 0.0664,0.0586 0.13281,0.11719 0.20313,0.17188 0.27343,0.19922 0.57031,0.375 0.92968,0.49218 0.66797,0.21875 1.39844,0.008 1.85157,-0.53515 0.41015,-0.4961 0.80468,-0.74219 1.16797,-0.84766 0.10937,-0.0312 0.21093,-0.0273 0.3125,-0.0391 0.0742,-0.008 0.14843,-0.0273 0.21484,-0.0273 0.17187,0.004 0.33203,0.0312 0.48828,0.0625 0.30859,0.0742 0.46094,0.1914 0.59375,0.46484 l 0.17578,0.5625 c 0,0.004 0.10547,1.30469 0.10547,1.30469 0,0.98437 -1.94531,2.28906 -3.41016,2.28906 -2.8125,0 -4.73828,-2.25 -4.78906,-5.59766 0,0 0.0234,-0.40234 0.0508,-0.84765 z m 19.51563,-34.519535 c -0.26563,0.01563 -1.01953,0.0625 -1.01953,0.0625 -5.14453,0.05859 -10.45313,0.671875 -15.69532,1.824219 -2.74218,0.601562 -5.33203,1.285156 -7.75781,2.03125 -0.29687,0.0039 -0.57812,0.06641 -0.82422,0.210937 -0.0977,-1.613281 -0.77343,-2.996093 -1.875,-3.980469 4.82032,-1.253906 10.02735,-2.253906 15.3086,-2.925781 3.64062,-0.460937 7.59765,-0.675781 11.76953,-0.667969 0.19922,0.207032 0.43359,0.382813 0.73047,0.472657 0.52734,0.160156 0.82031,0.601562 0.86718,1.3125 0.004,0.04687 0.008,0.105469 0.008,0.175781 0,0.414062 -0.16016,1.171875 -1.51172,1.484375 z m -12.94141,4.644531 c -0.48828,0.847656 -0.80469,1.796875 -0.875,2.8125 -0.004,0.07031 -0.004,0.144532 -0.008,0.21875 -1.11328,-0.511718 -2.28906,-1.003906 -3.51172,-1.476562 l -0.24219,-0.585938 c 0.53516,-0.125 1.05469,-0.257812 1.60157,-0.378906 1.01171,-0.222656 2.02343,-0.410156 3.03515,-0.589844 z m -13.45312,3.5 c 0.68359,-0.238281 1.40234,-0.46875 2.12109,-0.695312 1.53125,0.453125 3.01953,0.941406 4.43359,1.457031 0.38672,0.535156 1.02344,0.769531 1.67188,0.640625 2.38672,0.941406 4.54687,1.957031 6.40625,3.011719 0.0469,0.02734 0.0859,0.05469 0.12891,0.07422 1.32421,0.757812 2.49218,1.53125 3.46875,2.3125 0.0352,0.191406 0.0781,0.390624 0.1289,0.589843 -3.17969,-2.4375 -6.73828,-2.898437 -9.94922,-1.136719 -0.0859,0.01563 -0.17187,0.01563 -0.25781,0.04297 -1.06641,0.367188 -2.10156,0.960938 -3.05859,1.734375 -0.46485,-1.027344 -1.17578,-1.863281 -2.16407,-2.425781 -4.73828,-2.703125 -9.51171,-0.332031 -12.6914,3.597656 -0.71485,-0.195312 -1.54688,-0.339843 -2.44141,-0.425781 0.66016,-1.175781 0.90625,-2.253906 0.98438,-3.085938 0.7539,-0.601562 1.625,-1.183593 2.57422,-1.753906 0.35546,-0.07813 0.6914,-0.234375 0.94921,-0.523437 0.0234,-0.02734 0.0352,-0.05859 0.0586,-0.08594 1.66406,-0.917969 3.59375,-1.789062 5.72265,-2.613281 0.73829,0.226562 1.51563,-0.04687 1.91407,-0.714844 z m -11.76563,12.28125 c -0.51172,1.003906 -0.88672,1.988282 -1.10937,2.902344 -0.0859,0.316406 -0.15235,0.621094 -0.1875,0.917969 0,0 -0.0898,0.695312 -0.0898,0.695312 -0.0195,0.164063 -0.13671,1.132813 -0.13671,1.132813 -0.19141,1.714844 -0.60547,5.207036 -1.28907,5.839846 -0.63281,-0.16406 -0.92187,-0.33594 -0.92187,-0.9961 0,-0.25 0.0391,-0.57421 0.11719,-0.99218 l -0.15625,-1.757816 c -0.0508,-0.527344 -0.33985,-0.589844 -0.78516,-0.875 -0.44531,-0.285156 -1,0.07031 -1.5,0.246094 l -0.16406,0.05859 c -0.44532,0.15625 -0.85157,0.34375 -1.23047,0.550781 -0.1211,0.06641 -0.22656,0.140626 -0.33985,0.210938 -0.25781,0.15625 -0.49609,0.324219 -0.71875,0.507812 -0.10937,0.08984 -0.21875,0.179688 -0.3164,0.273438 -0.21485,0.207031 -0.41406,0.425783 -0.59375,0.652343 -0.0664,0.0898 -0.14453,0.17188 -0.20703,0.26172 -0.23047,0.32813 -0.4336,0.67969 -0.59375,1.0586 -0.0312,0.0664 -0.0508,0.14843 -0.0781,0.21875 -0.1289,0.3164 -0.23437,0.65234 -0.3164,1.00781 -0.0312,0.14062 -0.0586,0.29297 -0.082,0.4375 -0.0547,0.3125 -0.0937,0.63281 -0.11718,0.96875 -0.0156,0.16406 -0.0273,0.32422 -0.0312,0.49219 0,0.0977 -0.0156,0.18359 -0.0156,0.28125 0,0.25781 0.0312,0.53906 0.0469,0.8125 0.0117,0.17968 0.0117,0.35156 0.0312,0.53515 0.0547,0.56641 0.13672,1.15235 0.26172,1.76563 0.0156,0.0742 0.0508,0.14062 0.0703,0.21094 -0.60938,0.21875 -1.14844,0.61328 -1.61719,1.19531 -0.008,0.0117 -0.0156,0.0234 -0.0234,0.0312 -0.20703,0.26172 -0.39843,0.55469 -0.57812,0.88672 -0.0391,0.0742 -0.082,0.14453 -0.1211,0.22265 -0.18359,0.36328 -0.35937,0.75782 -0.51171,1.19922 l -0.65235,2.23828 c -0.92969,3.47266 -1.55859,4.92188 -3.07422,4.92188 -0.80468,0 -1.51562,-0.78906 -1.96484,-1.45313 l -0.22656,-0.35937 c 0,0 -0.84375,-1.76563 -0.84375,-1.76563 -0.0781,-0.21093 -0.14453,-0.38672 -0.20313,-0.55078 -0.0156,-0.0508 -0.0312,-0.0898 -0.043,-0.13281 -0.043,-0.125 -0.082,-0.23828 -0.11328,-0.34375 -0.0117,-0.043 -0.0234,-0.0859 -0.0352,-0.125 -0.0312,-0.11719 -0.0586,-0.23047 -0.0742,-0.33984 -0.004,-0.0156 -0.008,-0.0273 -0.0117,-0.0469 -0.0156,-0.125 -0.0234,-0.24609 -0.0273,-0.37891 0,-0.0312 0.004,-0.0664 0.004,-0.0977 0,-0.11328 0.008,-0.23047 0.0234,-0.35938 0.004,-0.0469 0.008,-0.0937 0.0156,-0.14453 0.008,-0.0859 0.0273,-0.18359 0.0391,-0.27734 0.0742,-0.19531 0.10546,-0.40235 0.10546,-0.60547 l 0.11719,-0.64453 c 0.0586,-0.28125 0.26172,-0.60547 0.58203,-0.91797 v -0.004 c 0.0859,-0.082 0.17188,-0.125 0.25782,-0.19531 0.93359,1.43359 2.24218,1.44141 3.04296,1.26563 3.25,-0.70313 3.53907,-5.53125 3.625,-9.73047 0.004,-0.28516 0.008,-0.5586 0.0156,-0.83203 l 0.0547,-2.011727 0.17968,-1.066406 c 0.76954,-3.507812 4.05079,-6.546875 7.62891,-7.0625 0.0352,-0.0039 0.0703,-0.0039 0.10547,-0.0078 0.39453,0.113281 0.80469,0.07812 1.18359,-0.101563 1.22266,-0.05078 2.55078,0.02734 3.59375,0.175781 z m -9.30468,20.648434 c 0,0.22266 -0.0273,0.49219 -0.082,0.80469 -0.0117,-0.19922 -0.0547,-0.3789 -0.1289,-0.54297 0.11719,-0.17578 0.20312,-0.26562 0.20312,-0.26562 0,0 0.008,0 0.008,0.004 z m -6.85938,-10.96875 c -0.008,0.19922 -0.0117,0.33204 -0.0117,0.33204 -0.0273,1.5664 -0.125,5.21484 -0.72265,6.66796 -0.082,-0.21093 -0.17188,-0.43359 -0.17188,-0.43359 -0.23828,-0.59766 -0.67969,-0.78516 -1.32031,-0.84375 -0.17188,-0.0195 -0.35938,0.0273 -0.53906,0.0508 0.0469,-0.23828 0.0781,-0.48828 0.16015,-0.6914 l 0.42578,-1.03516 c 0.83594,-2.04688 1.42578,-3.30078 2.1836,-4.13672 -0.004,0.0352 -0.004,0.0547 -0.004,0.0898 z m -1.06641,-3.703121 c -2.20703,1.363281 -3.15625,3.691411 -4.28515,6.457031 l -0.41797,1.01563 c -0.51953,1.2539 -0.56641,2.54296 -0.60547,3.68359 l -0.0273,0.52344 c -0.0977,0.11718 -0.17969,0.24218 -0.26172,0.35937 -1.61719,-1.69531 -3.47656,-3.90234 -4.312502,-5.39844 -1.769532,-3.16406 -1.9375,-4.355465 -2.3125,-6.957028 L 97.257812,95.65625 c -0.25,-1.398438 -0.640624,-2.535156 -1.1875,-3.933594 C 95.34375,89.855469 94.378906,88.171875 93.25,86.671875 c 0.957031,0.01563 1.910156,-0.03516 2.847656,-0.230469 0.136719,-0.0039 1.917969,-0.05078 1.917969,-0.05078 l 2.960935,-0.07031 c 4.54297,0.492188 8.22657,2.023438 8.94922,3.722657 0.0625,0.148437 0.14453,0.285156 0.2461,0.410156 0.2539,0.3125 0.28125,0.472656 0.33593,1.296875 0,0 0.0547,0.550781 0.0937,0.925781 -0.082,0.351563 -0.66406,2.894531 -0.98047,4.273438 z m -6.27343,19.132811 c -0.53516,-0.18359 -0.97657,-0.625 -1.14844,-0.8789 -0.12109,-0.1836 -0.10547,-0.38282 -0.19531,-0.57813 0.33203,0.0703 0.64453,0.0742 0.94922,0.0352 0.082,0.46484 0.21484,0.91015 0.39453,1.42187 z m -1.125,5.55078 c 0,-0.69922 -0.0586,-1.48047 -0.16797,-2.32422 0.39844,0.15235 0.80469,0.2461 1.22656,0.28516 0.22656,0.0469 0.45313,0.0742 0.6875,0.0586 l 0.17188,0.0195 c 0.0273,0 0.0469,0.004 0.0781,0.004 -0.34766,1.08203 -0.72266,2.19531 -1.15625,3.25781 -0.0547,0.13282 -0.11328,0.25391 -0.17187,0.38282 -0.16797,0.39843 -0.33985,0.78906 -0.53125,1.16015 -0.25391,0.49219 -0.52344,0.96094 -0.8125,1.38672 -0.0195,0.0273 -0.0312,0.0547 -0.0469,0.0781 -0.95312,1.375 -1.992188,2.14062 -3.179688,2.32812 -0.02344,0.004 -0.253906,0.0508 -0.253906,0.0508 -0.351562,0.0352 -1.050781,0.0391 -1.460937,-0.36718 -0.109375,-0.10547 -0.09766,-0.39063 -0.167969,-0.5586 0.351562,0.11328 0.703125,0.21875 1.117188,0.19141 1.488281,-0.10547 2.644532,-0.65235 3.441402,-1.62891 0.82422,-1.01172 1.22657,-2.41015 1.22657,-4.32422 z m -0.33203,8.76172 c 0.10156,0.49219 0.16796,0.88281 0.16796,1.10938 0,0.23046 -0.0859,0.30859 -0.17578,0.39843 -0.0273,-0.0195 -0.39453,-0.29297 -0.39453,-0.29297 -0.30859,-0.22656 -0.67187,-0.2539 -1.03906,-0.19531 -0.0117,-0.0859 -0.0156,-0.15234 -0.0234,-0.21094 0.51172,-0.20703 1,-0.48046 1.46485,-0.80859 z m -0.4375,15.20703 c 1.07812,-0.82422 1.67578,-1.6289 2.00781,-2.40234 0.008,0.75 0.0859,1.53906 0.24219,2.39062 0,0.004 0,0.004 0,0.008 0.22656,1.18359 0.76171,3.16796 1.9375,4.83203 -0.125,0.17578 -0.28125,0.39453 -0.28125,0.39453 -0.25782,0.28906 -0.64844,0.63281 -1.07422,0.64062 -0.37891,0.008 -0.69141,-0.2539 -0.84375,-0.41015 -0.0937,-0.0977 -0.31641,-0.44922 -0.34766,-1.61328 -0.0195,-0.875 -0.83594,-1.66407 -1.70703,-1.73829 -0.0273,0 -2.269532,-0.40625 -2.796876,-2.00781 0.308594,0.1875 0.640625,0.32813 1.011718,0.38672 z m 1.2539,-6.83984 c 0.45703,0.043 0.91406,0.043 1.36328,-0.004 -0.18359,0.71875 -0.35156,1.45703 -0.46484,2.23828 -0.16016,-0.82422 -0.49219,-1.57422 -0.89844,-2.23437 z m 2.90625,-4.11328 c -0.0937,0.0664 -0.32422,0.21484 -0.32422,0.21484 -0.9375,0.49219 -2.10937,0.65234 -2.6914,0.36719 0.38672,-0.0937 0.80859,-0.15625 1.09375,-0.33985 1.3789,-0.88671 1.77734,-2.10156 1.77734,-3.35937 0,-0.96094 -0.23047,-1.94922 -0.44141,-2.84375 0,0 -0.14062,-0.66406 -0.2539,-1.21875 l -0.0547,-0.25391 c 1.03516,-1.68359 1.82031,-3.61718 2.45313,-5.5039 0.98046,0.61719 1.91406,0.80469 2.64843,0.80469 0.3711,0 0.71485,-0.043 1.03907,-0.10157 -0.46094,0.48047 -0.83204,1.14453 -0.83204,2.17578 0,0.16797 0.008,0.34766 0.0273,0.53907 0.17578,1.61718 1.0039,2.375 1.66797,2.71875 0.41797,0.21875 0.84765,0.27734 1.26562,0.30078 -0.0469,0.42187 -0.1289,0.8125 -0.28906,1.0664 l -0.10938,0.14063 c -0.51562,0.43359 -2.0039,0.25781 -2.72265,0.17187 l -0.94531,-0.0781 c -0.45704,-0.0352 -0.83594,0.11328 -1.1875,0.41015 -0.34375,0.29688 -0.48829,0.72657 -0.51954,1.1836 -0.1289,1.82422 -0.625,2.9375 -1.60156,3.60547 z m 66.77734,-24.6211 c 0.0352,0.0625 0.0742,0.1211 0.11329,0.17969 0.3125,0.48047 0.69921,0.875 1.16796,1.15235 0.0547,0.0352 0.11329,0.0664 0.17579,0.0977 0.24609,0.12891 0.5039,0.23438 0.79687,0.29688 0.30469,0.0664 0.59766,0.0859 0.875,0.0586 0.55859,-0.0508 1.05469,-0.28906 1.49609,-0.69922 0.22266,-0.20703 0.42579,-0.45312 0.6211,-0.74219 0.0273,0.043 0.0508,0.0625 0.0781,0.10547 l 0.59766,1.13672 c 0,0.004 0.24609,0.85156 0.24609,0.85156 0.0273,0.0898 0.0469,0.16797 0.0703,0.25391 0.10546,0.375 0.18359,0.70313 0.25,1.01563 0.0195,0.0898 0.0352,0.18359 0.0508,0.27343 0.0508,0.30078 0.0859,0.58594 0.0898,0.8711 0,0.0234 0.004,0.0508 0.004,0.0742 -0.004,0.24609 -0.0625,0.50781 -0.10157,0.76171 -0.0312,0.17188 -0.0273,0.32813 -0.0742,0.51172 -0.004,0.0117 -0.0117,0.0312 -0.0117,0.0352 0,0.004 0.004,-0.004 0.008,-0.0234 l -0.45703,1.05078 c 0,0.008 -0.66016,0.84766 -0.66016,0.85157 h -0.004 c -0.35157,0.33984 -0.75782,0.61328 -1.17579,0.80078 -0.21093,0.0937 -0.42578,0.16406 -0.63671,0.21484 -0.21094,0.0469 -0.42188,0.0742 -0.625,0.0742 -0.58985,0 -1.27344,-0.19531 -1.98047,-1.67969 0.008,-0.0352 0.0117,-0.0742 0.0156,-0.10937 0.10156,-0.6875 0.21875,-1.5 0.21875,-1.5 0,-0.67578 -0.0547,-1.28125 -0.13281,-1.85547 -0.0156,-0.11719 -0.0273,-0.22656 -0.0469,-0.33594 -0.0898,-0.55859 -0.20312,-1.07422 -0.34765,-1.54297 -0.008,-0.0195 -0.0156,-0.0352 -0.0195,-0.0547 -0.32032,-1.01171 -0.7461,-1.82031 -1.1875,-2.45703 0.0664,-0.17187 0.1289,-0.33203 0.17968,-0.46875 0.11719,0.28907 0.25782,0.55078 0.40625,0.80078 z m 2.02735,-9.32421 c 0.7539,0.83593 1.34765,2.08984 2.18359,4.14062 0,0 0.38281,0.94141 0.41016,1 -0.0391,0 -0.0781,0.004 -0.11719,0.008 -0.64062,0.0586 -1.08594,0.2461 -1.32031,0.84375 l -0.3086,0.76563 c -0.0234,0.0742 -0.0703,0.21094 -0.11328,0.33203 -0.59765,-1.45313 -0.69922,-5.10156 -0.72265,-6.66797 0,0 -0.008,-0.28906 -0.0117,-0.42187 z m 3.47265,30.48437 c -0.0312,-0.45703 -0.17578,-0.88672 -0.51953,-1.18359 -0.34765,-0.29688 -0.73047,-0.44922 -1.1875,-0.41016 l -0.92968,0.0781 c -0.73438,0.082 -1.96485,0.22266 -2.59375,-0.0977 l -0.15235,-0.082 c -0.21094,-0.17969 -0.32031,-0.65625 -0.38672,-1.20313 0.41797,-0.0234 0.84766,-0.0781 1.26563,-0.29687 0.66015,-0.34766 1.48828,-1.10156 1.66406,-2.72266 0.0195,-0.1875 0.0273,-0.36719 0.0273,-0.53906 0,-1.03125 -0.36718,-1.69922 -0.83203,-2.17969 0.33203,0.0625 0.67578,0.10547 1.03907,0.10547 0.91015,0 1.83203,-0.22656 2.70703,-0.625 0.61718,1.82813 1.39062,3.69141 2.39453,5.32422 l -0.11719,0.57031 c -0.0586,0.27734 -0.11719,0.55078 -0.15234,0.71875 l -0.0391,0.1875 c -0.20703,0.89453 -0.4414,1.88281 -0.4414,2.83984 0,1.26172 0.39844,2.47266 1.77734,3.36329 0.28125,0.17968 0.69922,0.23437 1.07422,0.33593 -0.51562,0.23828 -1.46094,0.15625 -2.36719,-0.23047 -0.14453,-0.0664 -0.30468,-0.13281 -0.30468,-0.13281 -1.20313,-0.63672 -1.77735,-1.77734 -1.92579,-3.82031 z m 4.52735,7.67187 c -0.14453,0.23047 -0.28516,0.46485 -0.42188,0.71875 -0.0547,-0.21875 -0.11718,-0.4375 -0.17578,-0.65234 0.0273,0 0.0469,-0.0117 0.0742,-0.0156 0.17969,0 0.34766,-0.0273 0.52344,-0.0508 z m -0.0469,7.58594 c 0.10938,-0.58594 0.16797,-1.13672 0.20313,-1.67578 0.29687,0.32422 0.65234,0.64844 1.08203,0.97656 0,0 1.84766,0.48047 1.84766,0.48047 0.39062,-0.0625 0.73437,-0.21875 1.05468,-0.42187 -0.46875,1.625 -2.80468,2.03906 -2.83593,2.04297 -0.8711,0.0703 -1.69141,0.86328 -1.71094,1.73828 -0.0312,1.16406 -0.25,1.51562 -0.34766,1.61328 -0.14844,0.15625 -0.46484,0.41797 -0.84375,0.41015 -0.17187,-0.004 -0.33594,-0.0742 -0.49219,-0.16406 0.95313,-1.29687 1.67579,-3.02734 2.04297,-5 z m 2.28907,-14.89062 c -0.36719,-0.0547 -0.73047,-0.0312 -1.03516,0.19531 0,0 -0.37109,0.27734 -0.40234,0.29687 -0.0898,-0.0859 -0.17579,-0.16796 -0.17579,-0.40234 0,-0.22656 0.0664,-0.61328 0.16797,-1.10156 0.46875,0.32812 0.95703,0.60156 1.46485,0.8125 -0.004,0.0547 -0.0117,0.11719 -0.0195,0.19922 z m -1.05469,-5.46875 c -0.0117,-0.0234 -0.0273,-0.0547 -0.043,-0.0742 -0.29297,-0.43359 -0.56641,-0.90234 -0.82031,-1.39844 -0.17969,-0.35156 -0.34375,-0.73047 -0.50782,-1.10937 -0.0625,-0.14844 -0.13281,-0.29297 -0.19531,-0.44141 -0.43359,-1.0625 -0.80859,-2.17578 -1.15234,-3.25 l 0.2539,-0.0195 c 0.23047,0.0156 0.46094,-0.0156 0.6836,-0.0547 0.42187,-0.043 0.83203,-0.13672 1.22656,-0.28906 -0.10937,0.84766 -0.16797,1.62891 -0.16797,2.32812 0,1.91016 0.40235,3.3125 1.22656,4.32032 0.79688,0.98047 1.95704,1.52734 3.44532,1.6289 0.41015,0.0312 0.76562,-0.0742 1.11328,-0.1875 -0.0703,0.16797 -0.0586,0.44922 -0.16406,0.5586 -0.40625,0.39843 -1.10157,0.39843 -1.48438,0.36328 0,0 -0.21094,-0.043 -0.23047,-0.0469 -1.1875,-0.1914 -2.23047,-0.95312 -3.18359,-2.32812 z m -1.17188,-11.23828 c 0.25,0.004 0.50782,-0.0312 0.76953,-0.0937 -0.0937,0.19922 -0.16796,0.40234 -0.29687,0.58984 0,0 0,0 0,0.004 -0.004,0.004 -0.008,0.0117 -0.0117,0.0156 -0.10547,0.14844 -0.28906,0.36719 -0.52344,0.57031 0.0312,-0.23046 0.043,-0.45703 0.0508,-0.68359 0.0117,-0.0977 0.0312,-0.20312 0.0312,-0.29687 0,-0.0352 -0.0195,-0.0703 -0.0195,-0.10547 z m -1.34765,-5.23828 c -0.0859,-0.17188 -0.16797,-0.33594 -0.24219,-0.49219 l -0.0469,-0.8711 c -0.043,-1.14062 -0.0898,-2.42968 -0.60937,-3.68359 l -0.41406,-1.01172 c -1.36719,-3.35547 -2.5,-6.046874 -5.90235,-7.17578 -0.0234,-0.08203 -0.0547,-0.167969 -0.082,-0.253906 -0.27344,-1.125 -0.61328,-2.527344 -0.68359,-2.808594 0.0391,-0.375 0.0898,-0.914062 0.0898,-0.914062 0.0586,-0.828126 0.0859,-0.984376 0.34375,-1.300782 0.0977,-0.125 0.17969,-0.257812 0.23828,-0.40625 0.72657,-1.699218 4.41016,-3.230468 8.96485,-3.726562 0,0 2.9375,0.07031 2.9375,0.07031 0,0 1.79297,0.05078 1.92968,0.05078 1.53125,0.320312 3.09766,0.324218 4.67969,0.07422 -0.86328,1.28125 -1.61328,2.683594 -2.21094,4.203125 -0.54687,1.402344 -0.93359,2.539063 -1.17578,3.882813 -0.008,0.05078 -0.14843,1.027344 -0.14843,1.027344 -0.375,2.605468 -0.54297,3.792974 -2.3125,6.957034 -0.89063,1.59375 -3.42579,4.4375 -5.35547,6.37891 z M 177.2422,60.605469 c 0.16015,0.07422 0.32422,0.152343 0.48437,0.226562 -0.13672,0.07031 -0.28906,0.113281 -0.42578,0.191407 -0.0156,-0.140626 -0.0312,-0.28125 -0.0586,-0.417969 z m -44.56641,-9.359375 c 2.33984,-0.511719 4.67188,-0.960938 6.98047,-1.34375 0.0156,0.0039 0.0312,0.0039 0.0469,0.0078 0.33204,0.04297 0.63672,-0.03125 0.91797,-0.15625 15.51563,-2.464844 29.73828,-1.964844 37.94922,1.453125 0.8125,0.460938 1.46485,1.179688 1.53516,2.199219 0.004,0.07031 0.008,0.140625 0.008,0.207031 0,1.515625 -1.11719,2.796875 -2.57422,2.902344 0,0 -0.42969,-0.0039 -0.43359,-0.0039 -0.004,-0.0039 -1.51563,-0.21875 -1.51563,-0.21875 -3.92578,-0.578125 -8.18359,-0.898438 -12.64062,-0.96875 -4.29688,-0.0625 -8.77735,0.105469 -13.33594,0.515625 -5.19531,0.46875 -11.20703,1.5625 -17.89453,3.242187 0.0312,-0.167969 0.0898,-0.324219 0.10937,-0.492187 0.0352,-0.324219 0.0547,-0.652344 0.0547,-0.972656 0,-1.332032 -0.34375,-2.601563 -0.98437,-3.71875 -0.25391,-0.4375 -0.53907,-0.863282 -0.88282,-1.25 -0.20703,-0.234376 -0.45703,-0.414063 -0.6914,-0.621094 1.10156,-0.265625 2.21484,-0.53125 3.35156,-0.78125 z m -6.12109,11.839844 c 0.26172,0.65625 0.98047,1.085937 1.6875,1.082031 l 1.77734,-0.0078 c 1.99609,0.261719 2.53906,2.226563 2.34766,3.820313 -0.043,0.40625 -0.52344,0.910156 -0.98828,1.402343 l -0.38672,0.417969 c -0.48438,0.519531 -0.47266,1.257813 -0.15625,1.894531 0.3125,0.640626 1.11328,0.984376 1.82031,0.917969 l 1.375,-0.132812 c 1.58984,0.199219 2.45312,1.355469 2.25781,3.011719 0,-0.0078 -0.0937,0.21875 -0.21484,0.503906 -1.25,0.46875 -2.44141,0.957031 -3.5625,1.46875 -0.004,-0.03906 -0.004,-0.07031 -0.004,-0.105469 -0.11719,-1.75 -0.90234,-3.335937 -2.20703,-4.46875 -0.99609,-0.867187 -2.21875,-1.3125 -3.49609,-1.433594 0.0469,-0.25 0.16406,-0.460937 0.16406,-0.734375 0,-0.08984 -0.004,-0.183594 -0.008,-0.277344 -0.13672,-2.03125 -0.96485,-3.800781 -2.32031,-4.980468 -1.01954,-0.886719 -2.27735,-1.332032 -3.64454,-1.410156 0.14454,-0.613282 0.30079,-1.234376 0.30079,-1.875 0,-0.1875 -0.008,-0.382813 -0.0195,-0.570313 -0.13281,-1.988281 -0.97265,-3.789063 -2.3125,-5.1875 -0.17578,-0.179687 -0.32421,-0.378906 -0.51562,-0.542969 -0.21875,-0.191406 -0.46484,-0.335937 -0.70313,-0.5 1.96875,-0.667968 4.01954,-1.304687 6.14454,-1.910156 0.008,0 0.0156,0.0039 0.0312,0.0039 1.21484,0 2.28515,0.382813 3.08984,1.058594 0.15234,0.128906 0.3125,0.246094 0.44141,0.394531 0.77343,0.867188 1.11718,2.027344 0.97265,3.257813 -0.0898,0.753906 -0.35937,1.453125 -0.7539,2.070312 -0.29688,0.199219 -0.50782,0.472656 -0.63282,0.796875 -0.0469,0.05078 -0.0859,0.105469 -0.13672,0.15625 -0.51953,0.480469 -0.60546,1.222657 -0.34765,1.878907 z m -22.95313,-9.03125 c 0.0703,-1.03125 0.73438,-1.757813 1.55469,-2.214844 5.50391,-2.292969 13.4375,-3.316406 22.74219,-2.984375 -6.19922,1.542969 -11.97656,3.410156 -17.1836,5.507812 -0.11718,0.02734 -0.20312,0.04297 -0.20312,0.04297 0.0352,-0.0039 0.0664,0.0039 0.10156,0 -1.99219,0.804688 -3.90625,1.640625 -5.72265,2.503906 -1.10547,-0.414062 -1.30079,-1.667968 -1.30079,-2.492187 0,-0.132813 0.004,-0.257813 0.0117,-0.363281 z m -12.624998,16.0625 c 2.101563,-2.15625 5,-4.378907 8.601563,-6.550782 0.167969,-0.03906 0.335937,-0.08203 0.492185,-0.171875 0.625,-0.363281 1.30469,-0.578125 2.02735,-0.628906 0.25781,-0.01953 0.51172,-0.0039 0.76562,0.01953 0.96485,0.09375 1.88281,0.472656 2.64063,1.128906 1.01562,0.882813 1.625,2.128907 1.71875,3.503907 0.0664,0.992187 -0.26563,1.714843 -0.94141,2.777343 -0.4375,0.683594 -0.33594,1.574219 0.24219,2.140626 0.57422,0.566406 1.46875,0.65625 2.14062,0.210937 0.61719,-0.40625 1.30469,-0.636719 2.03516,-0.691406 1.12891,-0.08203 2.23437,0.292969 3.10547,1.046875 0.92969,0.808594 1.49219,1.949218 1.57422,3.207031 0.004,0.332031 -0.35547,1.476563 -0.75391,2.386719 -0.28906,0.664062 -0.14844,1.449218 0.37891,1.945312 0.52734,0.496094 1.29297,0.617188 1.9375,0.285156 l 0.45312,-0.230468 c 0.55469,-0.285156 1.57813,-0.820313 2.16797,-0.890625 1.32031,-0.132813 2.56641,0.238281 3.39063,1.015625 0.73046,0.683594 1.08984,1.636718 1.04687,2.75 0.0391,0.671875 -0.0469,2.359375 -1.96484,4.085937 -0.1875,0.01953 -0.38282,0.03516 -0.55469,0.05859 -2.89453,0.417969 -5.57031,1.984375 -7.53906,4.164063 l -0.0117,-0.160157 c -0.0625,-0.878906 -0.17188,-1.878906 -0.9375,-2.957031 -0.0469,-0.08984 -0.0937,-0.183594 -0.15625,-0.265625 0.0195,0.02734 0.0195,0.05078 0.0352,0.07422 -2.04296,-3.984375 -8.69531,-5.148438 -11.53906,-5.460938 l -3.441405,0.05469 -1.769531,0.05469 c -0.117188,0 -0.332032,0.01953 -0.449219,0.04687 -1.917969,0.457032 -3.945313,0.257813 -6.015625,-0.554687 -1.402344,-1.128907 -2.289062,-2.390625 -2.574219,-3.765625 -0.07031,-0.351563 -0.105469,-0.703125 -0.105469,-1.066406 0,-2.277344 1.386719,-4.871094 4,-7.5625 z M 57.582031,103.95313 c 0.652344,1.65234 1.65625,2.99609 2.914063,4 1.546875,1.23046 3.464844,1.94921 5.65625,1.94921 0.902344,0 1.789062,-0.16406 2.648437,-0.42187 1.15625,3.40625 3.914063,5.52344 7.746094,5.52344 1.855469,0 3.585937,-0.63282 5.0625,-1.67578 1.28125,3.5625 4.417969,6.10546 8.121094,6.10546 3.046875,0 5.867187,-1.5625 7.539062,-4.17968 0.511719,-0.79688 0.277344,-1.85547 -0.519531,-2.36328 -0.796875,-0.51172 -1.855469,-0.27735 -2.367188,0.51953 -1.039062,1.625 -2.777343,2.59765 -4.652343,2.59765 -2.941407,0 -5.335938,-2.75781 -5.335938,-6.14843 0,-0.76172 -0.503906,-1.4336 -1.238281,-1.64454 -0.730469,-0.21093 -1.515625,0.082 -1.921875,0.73047 -1.042969,1.64844 -2.796875,2.63282 -4.6875,2.63282 -2.835937,0 -4.585937,-1.63282 -4.925781,-4.59766 -0.06641,-0.57422 -0.417969,-1.07422 -0.933594,-1.33594 -0.515625,-0.25781 -1.128906,-0.24219 -1.628906,0.0508 -0.882813,0.51172 -1.886719,0.78125 -2.90625,0.78125 -1.699219,0 -3.121094,-0.61328 -4.160156,-1.71875 -1.035157,-1.10156 -1.683594,-2.69531 -1.835938,-4.65625 0.0078,-0.008 0.07813,-1.519529 0.08594,-1.667966 4.289062,-7.800782 9.816406,-13.207032 16.144531,-15.101563 0.06641,-0.01953 0.128906,-0.04687 0.191406,-0.06641 0.246094,-0.03125 0.964844,-0.125 0.964844,-0.125 6.214843,-1.28125 12.613281,2.863281 15.339843,9.832031 0.480469,1.234375 0.800782,2.160156 0.992188,3.238282 0,0.0078 0.132812,0.90625 0.132812,0.90625 0.394532,2.757812 0.632813,4.425786 2.710938,8.144536 0.691406,1.23828 1.898438,2.80469 3.175781,4.28125 -0.277343,0.15625 -0.519531,0.38672 -0.6875,0.67578 -0.164062,0.28516 -0.992187,1.75 -1.058593,2.75391 -0.07031,1.10547 0.21875,2.29687 0.78125,3.39062 -0.210938,0.71094 -0.355469,1.4336 -0.355469,2.17578 0,0.35157 0.02344,0.70313 0.07031,1.0586 0.109375,0.82422 0.152344,1.48828 0.152344,2.03125 0,1.41015 -0.292969,1.96484 -0.453125,2.16015 -0.07422,0.0937 -0.285156,0.28125 -0.914062,0.35157 -0.132813,-0.0859 -0.378907,-0.33985 -0.589844,-0.69922 -0.289063,-0.4961 -0.855469,-0.73828 -1.429688,-0.77344 -0.574218,-0.0312 -1.171875,0.29687 -1.515625,0.75391 -0.679687,-0.0898 -1.375,0.22656 -1.722656,0.86328 -1.074219,1.95312 -3.074219,3.16406 -5.230469,3.16406 -3.320312,0 -6.019531,-2.8125 -6.019531,-6.27344 0,-0.86719 -0.648437,-1.59765 -1.511719,-1.69922 -0.859375,-0.10156 -1.664062,0.45703 -1.867187,1.30078 -0.613281,2.53907 -2.945313,4.1836 -5.941407,4.1836 -2.75,0 -5.148437,-1.9375 -5.832031,-4.71094 -0.132812,-0.54297 -0.519531,-0.98437 -1.039062,-1.1875 -0.519531,-0.20312 -1.105469,-0.14062 -1.570313,0.16797 -1.003906,0.66406 -1.71875,0.89062 -2.839844,0.89062 -1.132812,0 -2.542968,-0.24218 -3.804687,-1.60937 -0.859375,-0.9375 -1.652344,-2.39453 -2.238281,-4.68359 -0.0078,-0.0312 -0.03125,-0.0586 -0.04297,-0.0898 0.945313,-3.48828 2.070313,-6.76172 3.347656,-9.78515 z m -4.679687,15.42968 c 0.777344,1.21094 1.660156,2.09375 2.582031,2.72657 1.601563,1.08984 3.328125,1.4375 4.835937,1.4375 1.089844,0 2.023438,-0.22657 2.9375,-0.57813 1.570313,3.23047 4.707032,5.42187 8.34375,5.42187 2.835938,0 5.25,-1.14453 6.980469,-2.91796 1.558594,3.16796 4.675781,5.40625 8.359375,5.40625 2.277344,0 4.433594,-0.86329 6.117188,-2.33594 0.292968,0.84375 0.730468,1.44922 1.140625,1.85156 0.742187,0.73047 1.726562,1.16797 2.835937,1.30078 l 0.09766,1.03906 0.207032,1.9375 c 0.191406,2.35938 1.316406,4.07813 2.140625,5.33204 0.585937,0.89843 0.890617,1.36328 0.890617,1.72265 0,0.22266 -0.15234,0.41797 -0.382805,0.64063 -0.222656,-0.27344 -0.445312,-0.57422 -0.578125,-0.76563 l -1.136718,-1.17578 c -0.417969,-0.43359 -0.839844,-0.26562 -1.425782,-0.12891 -0.585937,0.13672 -0.859375,0.92579 -1.042968,1.5 l -0.339844,1.0625 -0.5,1.83985 c -0.0078,0.14453 -0.01563,0.28515 -0.01563,0.42578 0,1.64844 0.660156,3.08984 1.925781,4.18359 0.871094,0.75782 1.929688,1.19532 2.914062,1.47657 0.132813,0.84375 0.421879,1.85546 1.191409,2.65234 0.93359,0.96484 2.13281,1.48047 3.37891,1.45312 0.91796,-0.0195 2.27734,-0.34765 3.5625,-1.79296 0,0 0.125,-0.17579 0.29687,-0.41407 0.45313,0.20313 0.91406,0.34766 1.39844,0.40625 0.15625,0.0195 0.29687,0.0195 0.44531,0.0312 -0.30469,6.14063 0.78125,10.71485 3.96875,17.09766 0.34375,0.69141 0.67188,1.32812 0.99609,1.94141 -0.52343,0.20312 -1.08203,0.32031 -1.65625,0.34375 -2.10546,-0.62891 -3.3125,-1.40625 -4.84765,-4.12891 -0.0352,-0.0547 -0.0703,-0.11328 -0.10547,-0.16406 l -1.48047,-2.03516 c -2.34766,-5.33984 -7.41797,-9.02734 -13.410157,-9.86719 -1.304688,-6.85937 -2.058594,-15.91015 -1.816406,-22.14453 0.07812,-0.24609 0.171874,-0.48828 0.222656,-0.74609 0.195312,-0.92578 -0.398438,-1.83203 -1.324219,-2.02735 -0.929687,-0.1914 -1.835937,0.40235 -2.027344,1.32813 -0.476562,2.28125 -2.441406,3.9375 -4.683593,3.9375 -1.84375,0 -3.542969,-1.12891 -4.332032,-2.875 -0.332031,-0.73047 -1.132812,-1.13281 -1.921875,-0.96484 -0.789062,0.17187 -1.351562,0.86718 -1.351562,1.67578 0,3.0039 -2.398438,5.26562 -5.578125,5.26562 -2.363282,0 -4.1875,-2.60937 -4.882813,-5.03125 -0.214843,-0.7539 -0.917969,-1.26562 -1.707031,-1.23828 -0.785156,0.0273 -1.453125,0.58594 -1.617188,1.35547 -0.597656,2.81641 -2.773437,4.78125 -5.292968,4.78125 -1.796875,0 -3.367188,-1.05859 -4.484375,-2.82813 -0.785157,-1.23828 -1.351563,-2.8164 -1.585938,-4.66406 -0.0039,-0.0391 -0.02734,-0.0664 -0.03516,-0.10547 0.367187,-4.39843 0.972656,-8.63281 1.792969,-12.64453 z m 47.039062,64.34375 c 0,0 0.01172,0.0195 0.01172,0.0234 -0.144531,2.64062 -2.203125,4.76172 -4.765625,4.76172 -0.515625,0 -1.015625,-0.1211 -1.5,-0.28516 -0.179688,-0.16406 -0.363281,-0.33203 -0.363281,-0.33203 -0.46875,-0.43359 -1.140625,-0.56641 -1.738281,-0.34766 -0.601563,0.21875 -1.03125,0.7461 -1.117188,1.37891 -0.316406,2.33203 -2.03125,3.72266 -4.578125,3.72266 -1.519531,0 -2.660156,-0.46875 -3.488281,-1.42578 -0.05469,-0.0625 -0.128906,-0.0977 -0.191406,-0.14844 -4.402344,-9.56641 -5.082032,-18.54297 -1.152344,-25.29688 0.59375,-1.16015 1.191406,-2.25 1.894531,-3.17968 0.367187,-0.20313 0.628906,-0.51563 0.769531,-0.89844 0.625,-0.62891 1.339844,-1.125 2.195313,-1.42969 1.640625,-0.68359 2.953125,-0.71875 4.96875,-0.71875 5.828125,0 10.94141,3.22266 13.02344,8.21094 0.0547,0.12109 0.11718,0.23828 0.19531,0.34765 l 1.50391,2.0625 c 0.50781,0.89063 1.01171,1.64063 1.53906,2.28907 0.28125,0.71093 0.73047,3.0039 0.73047,3.77343 0,2.77344 -2.16016,5.03125 -4.82032,5.03125 l -0.8125,-0.15234 c -0.29296,-0.0547 -0.94921,-0.12891 -1.23046,-0.0273 l -0.21094,0.0703 c -0.48828,0.16797 -0.847658,0.58594 -1.027345,1.07031 -0.0625,0.17969 -0.09375,0.3711 -0.09375,0.5625 0,0.32813 0.09375,0.66016 0.257812,0.9375 z M 75.71875,181.95703 c -0.316406,-0.70312 -1.328125,-2.94922 -1.328125,-2.94922 0,0 -2.070313,-4.72656 -2.070313,-4.73047 0,-0.004 -0.917968,-2.69922 -0.917968,-2.69922 -0.01172,-0.0312 -2.035156,-5.88671 -2.035156,-5.88671 -2.433594,-8.21485 -3.101563,-16.70313 -3.257813,-24.35157 1.269531,1.11328 2.808594,1.84375 4.605469,1.84375 2.347656,0 4.410156,-0.79687 5.964844,-2.125 0.558593,5.98438 1.792968,12.77735 3.542968,19.48438 -0.859375,1.13672 -1.554687,2.39062 -2.167968,3.59375 -2.941407,5.05078 -3.625,11.17578 -2.335938,17.82031 z m 4.242188,-42.98828 c 1.183593,0.69922 2.523437,1.11328 3.9375,1.11328 1.59375,0 3.09375,-0.5 4.375,-1.33594 0.132812,5.55078 0.773437,12.02344 1.734374,17.39063 -1.933593,0.0273 -3.492187,0.16797 -5.328124,0.9375 -0.582032,0.20703 -1.105469,0.48828 -1.601563,0.79297 C 81.46875,151.3125 80.375,144.63672 79.960938,138.96875 Z m 14.96875,78.62891 -0.132813,0.26953 c -1.09375,2.03515 -3.148437,3.38281 -5.207031,3.38281 -1.652344,0.10156 -2.546875,-0.0977 -3.96875,-0.77734 -0.242188,-0.11329 -0.496094,-0.23829 -0.777344,-0.38282 0,-0.008 -1.878906,-1.1289 -2.128906,-1.28125 -0.277344,-0.22656 -1.121094,-0.91406 -1.121094,-0.91406 l -0.980469,-0.94922 c -0.02734,-0.0273 -0.203125,-0.21484 -0.230469,-0.23828 -2.207031,-1.85156 -6.136718,-6.33594 -8.085937,-9.22266 0.01953,0.0312 -6.964844,-10.80078 -6.964844,-10.80078 -1.4375,-2.1289 -2.375,-3.83984 -3.640625,-6.21484 -6.289062,-11.89063 -10.035156,-26.46484 -10.832031,-42.14453 -0.109375,-2.14453 -0.164063,-4.26953 -0.164063,-6.36719 0,-0.69922 0.01172,-1.39062 0.02734,-2.08203 0.492188,0.58984 1.035156,1.11328 1.621094,1.54687 1.410156,1.04688 3.066406,1.62891 4.871094,1.62891 2.070312,0 3.953125,-0.80859 5.453125,-2.14062 0.144531,8.01562 0.816406,16.98828 3.414062,25.7539 l 2.089844,6.05078 c -0.01172,-0.0312 0.921875,2.71094 0.921875,2.71094 0.01563,0.0469 2.203125,5.05078 2.203125,5.05078 l 1.390625,3.08594 c 1.988281,4.125 6.464844,10.77344 9.425781,14.47266 3.421875,5.83593 8.023438,11.73437 13.652344,17.38671 -0.128906,0.73829 -0.265625,1.01563 -0.835937,2.17579 z m 8.898442,0.51562 c -0.17969,-0.16797 -0.39063,-0.28125 -0.60938,-0.35547 -2.58203,-2.26953 -4.972656,-4.59375 -7.191406,-6.94531 3.964844,-0.41016 7.078126,-3.80859 7.078126,-7.98438 0,-0.37109 -0.0898,-0.73046 -0.13672,-1.09765 0.0781,0 0.13672,0.0352 0.21875,0.0352 4.20703,0 7.58984,-3.42968 7.78906,-7.69531 0.58203,0.0977 1.15235,0.15235 1.69141,0.15235 4.33594,0 7.86328,-3.6211 7.86328,-8.06641 0,-2.65234 -1.27344,-5.13672 -3.40625,-6.64453 -0.76953,-0.54297 -1.83984,-0.36328 -2.38672,0.41015 -0.54687,0.76954 -0.36328,1.84375 0.41016,2.38672 1.22265,0.86719 1.95703,2.3086 1.95703,3.84766 0,2.55859 -1.99219,4.64062 -4.4375,4.64062 -1.40234,0 -2.07813,-0.23437 -2.76953,-0.94531 -0.61328,-0.63281 -1.60156,-0.69922 -2.29297,-0.15234 -0.42578,0.33594 -0.65234,0.83594 -0.65234,1.34375 0,0.3164 0.0898,0.63672 0.27343,0.92187 0,0 0.0664,0.10938 0.13672,0.21875 0.16016,0.48828 0.26172,0.9961 0.26172,1.51563 0,2.55469 -1.99219,4.63672 -4.4375,4.63672 -1.03516,0 -1.61328,-0.20313 -2.375,-0.84375 -0.71094,-0.59375 -1.730469,-0.48828 -2.347656,0.20312 -0.617188,0.69141 -0.539063,1.78125 0.136718,2.41406 l 0.582032,0.55469 c 0.289062,0.54688 0.496094,1.34766 0.496094,2.16406 0,2.5586 -1.988282,4.64063 -4.4375,4.64063 -1.148438,0 -2.238282,-0.46094 -3.070313,-1.29297 -0.164063,-0.16406 -0.351563,-0.28516 -0.554687,-0.37109 -2.511719,-3.07813 -4.6875,-6.17578 -6.511719,-9.2461 -0.05078,-0.20703 -0.144531,-0.40234 -0.273438,-0.58203 0.351563,0.0391 0.691407,0.0977 1.058594,0.0977 3.445313,0 6.070313,-1.7461 7.285156,-4.51953 0.660157,0.17578 1.316407,0.38281 2.011719,0.38281 4.136719,0 7.42188,-3.19531 8.01172,-7.27344 4.48047,-0.0781 8.10937,-3.8164 8.10937,-8.42969 0,-0.22656 -0.0273,-0.51562 -0.0625,-0.83203 0.46094,0.17578 0.94141,0.34375 1.47266,0.49219 0.14844,0.043 0.30469,0.0664 0.46094,0.0664 1.25781,0 2.49219,-0.29688 3.60547,-0.82422 1.02343,1.5 2.22656,2.875 3.9375,4.3164 3.25781,2.75391 5.00781,3.46875 7.22265,4.3711 l 2.33594,0.99609 3.44141,1.77735 c 1.30859,0.71875 2.54296,1.39062 3.94921,1.93359 0.73438,1.33984 1.50391,3.19922 1.50391,3.88281 0,3.01172 -2.34766,5.46094 -5.23047,5.46094 -0.14453,0 -0.28515,0.0195 -0.42187,0.0508 -1.17578,0.30078 -4.10938,-0.48828 -4.85547,-0.97656 0,0 -0.004,0 -0.004,0 l -0.82422,-0.6875 c -0.48828,-1.0586 -1.23046,-1.99219 -2.1914,-2.67969 -0.77344,-0.54297 -1.84375,-0.36719 -2.39063,0.40625 -0.54687,0.76953 -0.37109,1.83984 0.40235,2.38672 0.26953,0.19141 0.49218,0.43359 0.6875,0.69531 0.0352,0.45703 0.23828,0.89844 0.59765,1.21875 0.0664,0.26953 0.10157,0.55078 0.10157,0.83594 0,1.82812 -1.41407,3.31641 -3.15235,3.31641 -0.98828,0 -1.89844,-0.47266 -2.5039,-1.29688 -0.45704,-0.62109 -1.26954,-0.86328 -1.99219,-0.58594 -0.71875,0.27344 -1.16797,1 -1.09375,1.76563 l 0.0391,0.40625 c 0.0312,0.32812 0.16016,0.63672 0.35938,0.89453 0.57031,0.72656 0.82812,1.41797 0.82812,2.24609 0,2.07032 -1.60937,3.75391 -3.58203,3.75391 -0.48047,0 -0.92969,-0.15625 -1.35938,-0.36328 -0.19531,-0.14844 -0.38671,-0.30078 -0.58203,-0.44922 -0.004,-0.0117 -0.0117,-0.0195 -0.0156,-0.0273 -0.0273,-0.0273 -0.0625,-0.0352 -0.0898,-0.0586 -0.39843,-0.3125 -0.80468,-0.61719 -1.19531,-0.93359 -0.73828,-0.59375 -1.8164,-0.47656 -2.41015,0.26172 -0.59375,0.73828 -0.47657,1.8164 0.26171,2.41015 0.32422,0.26172 0.66407,0.51563 0.99219,0.77344 l 0.0977,0.15625 c 0.0625,0.0977 0.16406,0.16406 0.24219,0.24609 0.72656,0.83594 1.19531,1.89454 1.19531,3.03125 0,2.52344 -1.96485,4.57422 -4.375,4.57422 -1.0625,0 -2.08203,-0.40234 -2.88281,-1.13281 z m 4.96875,4.23047 c 3.20312,-0.92188 5.57031,-3.86328 5.6875,-7.40625 1.17578,0.83594 2.37109,1.64844 3.58203,2.44531 -0.83985,0.94531 -1.36328,2.19531 -1.36328,3.56641 0,0.83594 0.20703,1.63281 0.55468,2.34765 -0.9375,0.11329 -1.87109,0.22266 -2.84375,0.3125 -1.03125,-0.004 -2.01172,0.29688 -2.89843,0.77735 -0.92188,-0.67188 -1.82813,-1.35156 -2.71875,-2.04297 z m 70.33203,13.42578 c 2.33593,0.004 4.93359,1.75781 4.93359,4.375 0,2.58594 -2.00391,4.6875 -4.47266,4.71094 -0.0508,0.004 -0.17578,0.0117 -0.17578,0.0117 -0.19531,0.0156 -0.32031,0.16406 -0.48828,0.24218 -8.06641,2.14844 -18.8125,1.375 -30.76172,-2.21875 1.23438,-0.5039 2.46875,-1.02734 3.70703,-1.58203 4.19141,-1.86328 8.39844,-4.00781 12.56641,-6.42968 3.65234,0.52343 7.25391,0.83593 10.41406,0.92187 1.54297,0.043 2.99219,0.0391 4.27735,-0.0312 z M 169.17969,232 c 1.54687,-0.98438 3.07031,-1.98438 4.54687,-3.01953 0.125,0.34375 0.21875,0.66015 0.21875,0.84375 0,0.99609 -0.46875,1.89453 -1.24219,2.45703 -1.13671,-0.0664 -2.3164,-0.16016 -3.52343,-0.28125 z m -3.0586,-2.10938 c -8.11718,5.03907 -16.4414,9.02344 -24.46093,11.83204 -13.39844,4.69531 -25.9336,6.10546 -35.17188,3.64062 -0.17187,-0.0742 -0.29687,-0.22656 -0.49219,-0.24219 0,0 -0.125,-0.008 -0.17187,-0.0117 -2.46875,-0.0234 -4.47266,-2.125 -4.47266,-4.71093 0,-2.61719 2.59766,-4.3711 5.02735,-4.3711 1.6914,0.0898 3.53515,0.0898 5.49218,0.008 14.57813,-0.60547 35.66407,-6.03516 52.46875,-16.46485 l 1.5586,-0.96484 5.04297,-3.26563 c 0.17968,3.48047 2.51953,6.35547 5.67968,7.26172 -3.28515,2.54688 -6.79297,4.99219 -10.5,7.28906 z M 186.17578,198.125 c -0.63672,-0.55859 -1.58594,-0.57031 -2.23437,-0.0234 -0.58594,0.49219 -0.58594,0.49219 -1.71485,0.49219 -2.44531,0 -4.4375,-2.08203 -4.4375,-4.64063 0,-0.5625 0.0937,-1.10546 0.27735,-1.625 0.0508,-0.14062 0.082,-0.28515 0.0937,-0.43359 l 0.0234,-0.27734 c 0.0625,-0.72266 -0.33593,-1.40235 -0.99609,-1.70313 -0.66016,-0.30078 -1.43359,-0.15234 -1.94141,0.36719 -0.64062,0.66016 -0.98828,0.76953 -2.5039,0.76953 -2.44532,0 -4.4336,-2.08203 -4.4336,-4.64062 0,-1.54297 0.73047,-2.98047 1.95703,-3.84766 0.77344,-0.54297 0.95704,-1.61328 0.41016,-2.38672 -0.54687,-0.77344 -1.61719,-0.95703 -2.39062,-0.41016 -2.13282,1.50782 -3.40625,3.99219 -3.40625,6.64454 0,4.44921 3.52734,8.0664 7.86328,8.0664 0.59765,0 1.15234,-0.0391 1.69922,-0.11719 0.21875,4.2461 3.58593,7.66016 7.78515,7.66016 0.0586,0 0.10156,-0.004 0.16406,-0.004 -0.0508,0.39454 -0.0859,0.77344 -0.0859,1.06641 0,4.17188 3.11718,7.57422 7.07812,7.98438 -0.54297,0.57421 -1.09375,1.14453 -1.65234,1.71093 -0.32031,0.16797 -0.57813,0.41407 -0.74219,0.7461 -1.52734,1.51562 -3.125,3.01172 -4.80469,4.48828 -0.21484,0.0742 -0.42187,0.1914 -0.60156,0.35156 -0.79687,0.73438 -1.82031,1.13672 -2.87891,1.13672 -2.41406,0 -4.375,-2.05078 -4.375,-4.57422 0,-0.90625 0.76563,-2.27344 1.25,-2.91797 0.46485,-0.625 0.45313,-1.48437 -0.0312,-2.09375 -0.48437,-0.60937 -1.32031,-0.8164 -2.03125,-0.5039 l -0.51171,0.22656 c -0.0898,0.0391 -0.17579,0.0859 -0.25782,0.14062 -0.19531,0.13282 -0.19531,0.13282 -0.66406,0.11719 l -0.61719,-0.0156 c -1.97656,0 -3.58203,-1.6836 -3.58203,-3.75 0,-0.83204 0.25391,-1.52344 0.82813,-2.25 0.20312,-0.25782 0.32812,-0.57032 0.35937,-0.89844 l 0.0352,-0.40625 c 0.0742,-0.76563 -0.375,-1.48828 -1.09375,-1.76172 -0.72266,-0.27344 -1.53516,-0.0352 -1.99219,0.58594 -0.60156,0.82422 -1.51562,1.29687 -2.5,1.29687 -1.74219,0 -3.15625,-1.48828 -3.15625,-3.3164 0,-0.28516 0.0391,-0.56641 0.10547,-0.83594 0.35547,-0.32031 0.5625,-0.76172 0.59766,-1.21875 0.19531,-0.26172 0.41796,-0.50391 0.6875,-0.69531 0.76953,-0.54688 0.94921,-1.61719 0.40234,-2.38672 -0.55078,-0.77344 -1.61719,-0.94922 -2.39063,-0.40235 -0.96484,0.6875 -1.70703,1.61719 -2.1914,2.67578 l -0.3711,0.3086 c -0.004,0 -0.008,0 -0.0117,0.004 -0.82813,0.53907 -1.78125,0.82422 -2.76172,0.82422 -2.88282,0 -5.23047,-2.44922 -5.23047,-5.46093 0,-0.8125 0.60547,-2.35157 1.22656,-3.44922 2.19531,-0.83594 4.05469,-2.08985 6.05078,-3.45703 l 2.57031,-1.72266 c 2.23438,-1.42578 3.41797,-2.31641 5.26563,-3.96875 1.60156,-1.42969 2.85156,-2.65234 4.03516,-4.08984 0.96093,0.68359 1.96875,0.74609 3.20312,0.71875 l 0.67969,-0.008 c 0.14844,-0.004 0.32422,-0.0234 0.46875,-0.0664 0.53906,-0.14844 1.02734,-0.32422 1.49609,-0.50391 -0.0547,0.31641 -0.0898,0.60938 -0.0898,0.84375 0,4.66406 3.69922,8.45703 8.24609,8.45703 h 0.008 c 0.7461,3.88672 3.9375,6.88281 7.9375,6.88281 0.53125,0 1.02735,-0.1914 1.54297,-0.29296 1.0586,2.94921 3.80469,4.79296 7.6836,4.79296 0.375,0 0.74218,-0.0352 1.10937,-0.0859 -1.89844,3.26953 -4.19922,6.57031 -6.86719,9.83984 -0.1914,0.082 -0.37109,0.19531 -0.52343,0.34766 -0.83203,0.83203 -1.92578,1.29297 -3.07422,1.29297 -2.44531,0 -4.4375,-2.08204 -4.4375,-4.64063 0,-0.65234 0.21094,-1.62109 0.32812,-2.08594 0.16797,-0.26172 0.42188,-0.65625 0.42188,-0.65625 0.18359,-0.28515 0.27344,-0.60547 0.27344,-0.92968 0,-0.47657 -0.19532,-0.94532 -0.57813,-1.28516 z m 21.13672,-33.81641 c -0.47656,-0.9414 -1.01563,-1.92578 -1.65234,-2.86328 0.0352,-0.0781 0.0937,-0.14453 0.11718,-0.23047 1.9336,-6.84765 3.19532,-13.82031 3.73438,-20.47656 1.55078,1.30859 3.59765,2.08594 5.92187,2.08594 1.97657,0 3.63672,-0.88281 4.97266,-2.1875 -0.28125,9.22265 -1.49219,17.51172 -3.62109,24.69922 -0.84766,2.85937 -2.17969,7.1289 -3.69922,11.22265 -1.28125,3.44922 -2.4375,6.06641 -3.4375,7.78907 -0.25782,0.44531 -0.5586,0.93359 -0.86719,1.43359 2.33203,-8.01563 2.02344,-15.47266 -1.46875,-21.47266 z m -4.36328,-5.78515 c -0.67969,-0.5 -1.44141,-0.92188 -2.3086,-1.22657 -1.53515,-0.64843 -2.89843,-0.83984 -4.5039,-0.89453 1.13672,-5.88672 1.78906,-12.125 1.8789,-17.91797 1.25,0.78125 2.69922,1.23829 4.23829,1.23829 1.42968,0 2.77734,-0.42579 3.97265,-1.13672 -0.38672,6.42968 -1.5039,13.21875 -3.27734,19.9375 z m -3.54297,1.96484 c 2.39453,0.85547 3.68359,3.07031 4.90234,5.45703 3.94532,6.78516 3.28516,15.6875 -1,25.13281 -0.0664,0.0586 -0.14843,0.0937 -0.20703,0.16016 -0.91406,1.05469 -2.21875,1.66406 -3.57812,1.66406 -1.60938,0 -4.33985,-0.43359 -4.75782,-3.24609 0,-0.0742 0,-0.14844 0,-0.14844 0,-0.57031 -0.28125,-1.10156 -0.7539,-1.41797 -0.46875,-0.32031 -1.06641,-0.38672 -1.59375,-0.17578 l -0.41406,0.16406 c -0.54297,0.21485 -1.11719,0.32422 -1.70704,0.32422 -2.46875,0 -4.43359,-1.97265 -4.71093,-4.47656 0.16015,-0.24219 0.23437,-0.51172 0.23437,-0.78516 0,-0.35937 -0.11719,-0.72265 -0.32031,-1.04687 -0.35938,-0.57813 -1.14844,-0.86328 -1.82031,-0.76563 l -1.32813,0.19532 c -2.65625,0 -4.82031,-2.26172 -4.82031,-5.03516 0.008,-0.64453 0.85156,-3.5625 1.23828,-4.41797 0.004,-0.0156 0.004,-0.0273 0.008,-0.0391 0.35157,-0.48438 0.69141,-1.01172 1.03516,-1.60938 l 1.49219,-2.05859 c 1.9375,-3.10937 5.96093,-8.06641 12.29687,-8.51172 0.0234,0.004 0.0391,0.0195 0.0625,0.0273 0.3086,0.0664 0.60547,0.0156 0.88672,-0.0742 1.99609,0 3.30859,0.0352 4.85547,0.68359 z m 36.04687,-18.88672 c 0,2.09766 -0.0508,4.22266 -0.16406,6.36328 -0.83984,16.58985 -4.58984,31.23828 -11.15234,43.52735 -1.2461,2.33593 -2.60547,4.59375 -4.03906,6.71484 -0.0195,0.0312 -7.00782,10.86328 -7.00782,10.86328 -1.92968,2.85938 -5.85937,7.33985 -8.0625,9.19141 -0.0234,0.0234 -0.2539,0.27734 -0.28125,0.30469 l -0.86718,0.82812 c 0,0 -0.90235,0.73828 -1.17969,0.96484 -0.16797,0.10157 -2.22656,1.33204 -2.22656,1.33204 -1.10547,0.57031 -1.81641,0.89453 -2.64063,0.98437 -0.49609,0.0547 -1.03516,0.0273 -1.73047,-0.082 -0.0898,-0.0156 -0.17969,-0.0234 -0.27344,-0.0234 -2.125,0 -4.08203,-1.1875 -5.16015,-3.08984 -0.0781,-0.30469 -0.1836,-0.73828 -0.1836,-0.73828 -0.24218,-0.9336 -0.42187,-1.61719 -0.42187,-2.57813 0,-0.30078 0.0273,-0.64844 0.0664,-1.01953 4.05078,-4.13672 7.57812,-8.39844 10.48437,-12.68359 0.19141,-0.0977 0.36328,-0.22657 0.51172,-0.40235 3.92187,-4.625 8.96484,-11.64843 11.48437,-15.98828 1.09766,-1.88672 2.33985,-4.68359 3.6875,-8.3164 1.55469,-4.1836 2.91016,-8.53516 3.77344,-11.44532 2.20313,-7.4414 3.46094,-15.99218 3.75781,-25.46875 1.44141,1.16016 3.19532,1.85547 5.10938,1.85547 1.72656,0 3.39844,-0.58594 4.84766,-1.55469 0.58984,-0.39062 1.14453,-0.84375 1.64843,-1.35546 0.008,0.60546 0.0195,1.20703 0.0195,1.8164 z m -0.34765,-9.08984 c 0,0.008 -0.004,0.0156 -0.004,0.0234 0,1.5664 -0.66797,3.10546 -1.67187,4.32812 -1.17578,1.42188 -2.81641,2.40625 -4.49219,2.40625 -2.51953,0 -4.69922,-1.96875 -5.29297,-4.78125 -0.16406,-0.77344 -0.83203,-1.33203 -1.61719,-1.35937 -0.78515,-0.0273 -1.49218,0.48437 -1.70703,1.24218 -0.6914,2.42188 -2.51953,5.02735 -4.88672,5.02735 -3.17578,0 -5.57422,-2.26172 -5.57422,-5.26563 0,-0.80469 -0.5625,-1.5039 -1.35156,-1.67187 -0.78906,-0.17188 -1.58984,0.23047 -1.92187,0.96484 -0.78907,1.74219 -2.49219,2.87109 -4.33203,2.87109 -1.92579,0 -3.64454,-1.22656 -4.39063,-3.02343 -0.0352,-0.0977 -0.0586,-0.19922 -0.10547,-0.29297 -0.0703,-0.19922 -0.14062,-0.40235 -0.1875,-0.61719 -0.1914,-0.92578 -1.09765,-1.52344 -2.02344,-1.33203 -0.92968,0.19531 -1.52343,1.10156 -1.33203,2.02734 0.082,0.39063 0.20703,0.76172 0.33985,1.125 0.26172,6.91797 -0.44141,14.95313 -1.9336,22.33203 -5.55859,0.64844 -10.53515,4.10157 -14.15625,9.9375 0.0703,-0.10546 -1.46875,2.01172 -1.46875,2.01172 -0.0352,0.0547 -0.0742,0.10938 -0.10547,0.16407 -1.5625,2.76562 -2.77343,3.52734 -4.94921,4.16406 -0.21875,0 -0.46485,0.004 -0.46485,0.004 -0.57422,0.0117 -0.8789,0.0156 -1.09765,-0.0781 0.25,-0.38672 0.5039,-0.78906 0.76562,-1.22266 3.53125,-5.85547 4.83984,-12.3125 5.51953,-17.58984 0.31641,-0.0508 0.625,-0.13672 0.92578,-0.25391 1.16016,1.09375 2.33594,1.36328 3.15625,1.38282 1.2461,0.0273 2.44532,-0.48829 3.37891,-1.44922 0.77344,-0.80078 1.0625,-1.8125 1.19141,-2.65625 0.98046,-0.28125 2.03125,-0.71485 2.90234,-1.46485 1.27344,-1.09765 1.9375,-2.53906 1.9375,-4.19531 0,-0.14062 -0.008,-0.28516 -0.0117,-0.42578 l -0.50391,-1.83594 -0.33984,-1.0664 c -0.17969,-0.57813 -0.45703,-1.36329 -1.04297,-1.50391 -0.58594,-0.13672 -1.00781,-0.30078 -1.42969,0.13281 l -1.13281,1.17578 c -0.1289,0.1875 -0.35547,0.49219 -0.57422,0.76172 -0.23437,-0.21875 -0.38672,-0.41406 -0.38672,-0.63672 0,-0.35937 0.30469,-0.82812 0.89454,-1.72265 0.82031,-1.25782 1.94531,-2.97657 2.13671,-5.33594 l 0.21094,-1.94922 0.0937,-1.02344 c 1.11328,-0.13672 2.09375,-0.57031 2.83594,-1.30078 0.58984,-0.58203 1.23828,-1.55469 1.42187,-3.08984 1.76954,1.92578 4.2461,3.07031 6.88282,3.07031 3.63281,0 6.80468,-2.08984 8.38281,-5.21875 1.73047,1.71094 4.1875,2.73047 6.95703,2.73047 3.55469,0 6.65234,-2.25 8.24219,-5.57422 0.8789,0.41016 1.84375,0.73047 3.03515,0.73047 1.60938,0 3.28516,-0.45312 4.78125,-1.29687 1.02735,-0.58204 1.97266,-1.35157 2.75391,-2.29297 0.81641,4.10156 1.40625,8.42578 1.74219,12.91406 z m -9.10938,-32.640626 c 0,1.828126 -0.77343,3.457036 -1.97656,4.601566 -1.06641,1.01172 -2.46875,1.64453 -4.01953,1.64453 -0.94531,0 -2.11328,-0.67578 -2.96484,-1.17188 -0.5,-0.28906 -1.11329,-0.30468 -1.62891,-0.0469 -0.51563,0.25781 -0.86719,0.75781 -0.93359,1.33594 -0.35938,3.12109 -2.1836,4.98437 -4.86719,4.98437 -1.89063,0 -3.64063,-0.98437 -4.6875,-2.63281 -0.40625,-0.64453 -1.19141,-0.94141 -1.92188,-0.73047 -0.73437,0.21484 -1.23828,0.88281 -1.23828,1.64844 0,3.38672 -2.39453,6.14453 -5.33594,6.14453 -1.87109,0 -3.61328,-0.97266 -4.65234,-2.59766 -0.51172,-0.79687 -1.57031,-1.03125 -2.36719,-0.51953 -0.79687,0.51172 -1.03125,1.57031 -0.52343,2.36328 1.67578,2.6211 4.49609,4.17969 7.54296,4.17969 3.70704,0 6.83985,-2.54297 8.1211,-6.10156 1.47656,1.03906 3.21094,1.67187 5.0625,1.67187 3.6914,0 6.45312,-2.23437 7.64844,-5.73828 0.83593,0.35938 1.7539,0.63672 2.74609,0.63672 2.07031,0 3.98047,-0.69531 5.53516,-1.86328 1.34375,-1.00391 2.41796,-2.35938 3.09375,-3.94141 1.33984,3.1875 2.5,6.65235 3.46875,10.35156 -0.004,0.0352 -0.0234,0.0625 -0.0273,0.0977 -0.1875,1.83203 -1.17578,3.27344 -2.46094,4.23828 -1.13671,0.85156 -2.5,1.33594 -3.78125,1.33594 -1,0 -1.76562,-0.38672 -2.91406,-1.14844 -0.46484,-0.30859 -1.04687,-0.36719 -1.57031,-0.16797 -0.51563,0.20703 -0.90625,0.64844 -1.03906,1.19141 -0.70703,2.87891 -3.12891,4.96875 -5.75391,4.96875 -2.78906,0 -5.01172,-1.41016 -5.79297,-3.67969 -0.30859,-0.89453 -1.28515,-1.36719 -2.17969,-1.05859 -0.23046,0.0781 -0.42968,0.20312 -0.59375,0.35547 -0.42187,0.27734 -0.73437,0.70703 -0.78515,1.24609 -0.31641,3.20313 -2.89063,5.625 -5.98828,5.625 -2.15235,0 -4.15625,-1.21094 -5.23047,-3.16797 -0.45703,-0.82812 -1.5,-1.1289 -2.32813,-0.67187 -0.16406,0.0859 -0.28906,0.21484 -0.41015,0.34375 l -0.0195,-0.0234 c -0.34375,-0.46484 -0.94922,-0.79688 -1.52735,-0.76172 -0.57422,0.0352 -1.14062,0.27734 -1.42969,0.77344 -0.20703,0.35937 -0.45703,0.60937 -0.58984,0.69922 -0.62891,-0.0742 -0.83984,-0.26172 -0.91016,-0.35157 -0.16406,-0.19531 -0.45703,-0.75 -0.45703,-2.16015 0,-0.54297 0.043,-1.20703 0.15625,-2.03125 0.0469,-0.35547 0.0703,-0.71094 0.0703,-1.0625 0,-0.73828 -0.14454,-1.46094 -0.35938,-2.17188 0.5625,-1.09375 0.85547,-2.28906 0.78516,-3.39453 -0.0664,-0.99219 -0.89453,-2.46484 -1.0625,-2.75 -0.10157,-0.17187 -0.23438,-0.3164 -0.37891,-0.44922 1.57813,-1.73047 3.14063,-3.6289 3.91406,-5.01172 2.07813,-3.71875 2.31641,-5.382809 2.71094,-8.140621 l 0.14063,-0.957031 c 0.18359,-1.027344 0.5,-1.953126 0.98437,-3.191407 2.72656,-6.96875 9.125,-11.109375 15.21484,-9.847656 0.082,0.01172 0.54688,0.07031 0.86719,0.117187 0.0859,0.0078 0.16797,0.01953 0.21875,0.02734 6.39063,1.832032 11.96485,7.246094 16.29688,15.089844 l 0.1289,1.871094"
     id="path85"
     style="opacity:0.2;fill:#ffffff" />
  <path
     fill-rule="nonzero"
     fill="#104f8c"
     fill-opacity="1"
     d="m 153.91016,132.31641 0.88671,-0.48047 1.48047,-0.75 c 1.87891,-0.83203 3.125,-0.82813 5.17188,-0.75391 1.00781,0.0391 1.71484,0.27344 2.53125,0.54688 l 1.57031,0.46875 c 0.34375,0.10156 0.66797,-0.0977 0.76953,-0.4375 0.10156,-0.33985 -0.125,-0.70704 -0.46094,-0.8086 l -1.47265,-0.4414 c -0.8711,-0.29297 -1.69531,-0.56641 -2.89063,-0.61329 -2.16797,-0.0781 -3.60547,-0.0781 -5.73828,0.85938 l -1.58203,0.80859 -0.85547,0.46094 c -0.3125,0.17188 -0.4375,0.56641 -0.26953,0.875 0.16797,0.3125 0.55078,0.43359 0.85938,0.26563"
     id="path87"
     style="opacity:0.2;fill:#ffffff" />
</svg>
